<svg width="20" height="20" viewBox="0 0 20 20" fill="none" xmlns="http://www.w3.org/2000/svg">
<path d="M13.6754 8.73745C14.0827 8.36444 14.1105 7.73188 13.7375 7.3246C13.3644 6.91732 12.7319 6.88954 12.3246 7.26255L8.63252 10.644L7.6754 9.76739C7.26812 9.39437 6.63557 9.42215 6.26255 9.82943C5.88954 10.2367 5.91732 10.8693 6.3246 11.2423L7.95712 12.7374C8.33934 13.0875 8.92569 13.0875 9.30792 12.7374L13.6754 8.73745Z" fill="#6FBD15"/>
<path fill-rule="evenodd" clip-rule="evenodd" d="M10 0C4.47715 0 0 4.47715 0 10C0 15.5228 4.47715 20 10 20C15.5228 20 20 15.5228 20 10C20 4.47715 15.5228 0 10 0ZM2 10C2 5.58172 5.58172 2 10 2C14.4183 2 18 5.58172 18 10C18 14.4183 14.4183 18 10 18C5.58172 18 2 14.4183 2 10Z" fill="#6FBD15"/>
</svg>
