<svg width="20" height="20" viewBox="0 0 20 20" fill="none" xmlns="http://www.w3.org/2000/svg">
<path fill-rule="evenodd" clip-rule="evenodd" d="M4.30879 2.32088C4.13829 2.32051 3.97394 2.33981 3.81776 2.37649C3.60366 1.90461 3.32086 1.48126 2.99921 1.15962C2.45329 0.613689 1.59228 0.398438 0.400391 0.398438V2.31844C1.1285 2.31844 1.54749 2.42319 1.64157 2.51726C2.00442 2.88011 2.32039 3.61738 2.32039 4.23844L2.33004 4.3742L3.27071 10.9589C1.69673 11.0406 0.47738 12.2629 0.40157 13.7909L0.400391 14.7984C0.493339 16.3766 1.70863 17.5906 3.2259 17.6769L3.44384 17.6772C3.83886 18.7964 4.90597 19.5984 6.16039 19.5984C7.41436 19.5984 8.48115 18.797 8.87651 17.6784H11.1243C11.5196 18.797 12.5864 19.5984 13.8404 19.5984C15.431 19.5984 16.7204 18.309 16.7204 16.7184C16.7204 15.1279 15.431 13.8384 13.8404 13.8384C12.5864 13.8384 11.5196 14.6399 11.1243 15.7584H8.87651C8.48115 14.6399 7.41436 13.8384 6.16039 13.8384C4.90642 13.8384 3.83963 14.6399 3.44427 15.7584H3.28039C2.7908 15.7291 2.35163 15.2903 2.31867 14.741L2.32039 13.8384C2.34628 13.3405 2.78245 12.9043 3.32796 12.8773L5.22313 12.8777L5.23687 12.8784H14.9126L15.0543 12.8335C15.7822 12.6025 16.3648 12.0544 16.6407 11.3449L16.7419 11.1447L17.0705 10.4937C17.4104 9.8198 17.7504 9.14476 18.0816 8.48529C18.8931 6.86987 19.4034 5.84323 19.5164 5.59113C20.0968 4.29647 18.9211 3.3 17.7195 3.27878L4.30879 2.32088ZM14.5793 10.9615H5.309C5.24736 10.9443 5.20038 10.8921 5.19119 10.8271L4.25049 4.24219L17.5783 5.19661C17.3451 5.67219 16.9212 6.52164 16.3662 7.62653L16.3523 7.65421C16.0355 8.28487 15.696 8.95897 15.3565 9.63195L15.0283 10.2821L14.9039 10.5284L14.8571 10.6372C14.8069 10.7769 14.7074 10.8917 14.5793 10.9615ZM13.8404 17.67C14.3706 17.67 14.8004 17.2402 14.8004 16.71C14.8004 16.1798 14.3706 15.75 13.8404 15.75C13.3102 15.75 12.8804 16.1798 12.8804 16.71C12.8804 17.2402 13.3102 17.67 13.8404 17.67ZM7.1202 16.71C7.1202 17.2402 6.69039 17.67 6.1602 17.67C5.63 17.67 5.2002 17.2402 5.2002 16.71C5.2002 16.1798 5.63 15.75 6.1602 15.75C6.69039 15.75 7.1202 16.1798 7.1202 16.71Z" fill="#203686"/>
</svg>
