<svg width="126" height="28" viewBox="0 0 126 28" fill="none" xmlns="http://www.w3.org/2000/svg">
<rect width="126" height="28" rx="12" fill="#FFED32"/>
<path d="M18.6747 18.37V12.756H15.4547L15.3847 14.184C15.366 14.6507 15.3334 15.1033 15.2867 15.542C15.2494 15.9713 15.184 16.368 15.0907 16.732C15.0067 17.096 14.8807 17.3947 14.7127 17.628C14.5447 17.8613 14.3207 18.006 14.0407 18.062L12.7107 17.824C13 17.8333 13.2334 17.74 13.4107 17.544C13.588 17.3387 13.7234 17.0587 13.8167 16.704C13.9194 16.3493 13.994 15.948 14.0407 15.5C14.0874 15.0427 14.1247 14.5713 14.1527 14.086L14.2647 11.58H20.0187V18.37H18.6747ZM12.4167 20.722V17.824H21.1527V20.722H19.8927V19H13.6907V20.722H12.4167ZM26.0816 19.084C25.3349 19.084 24.6722 18.9207 24.0936 18.594C23.5149 18.2673 23.0576 17.8193 22.7216 17.25C22.3856 16.6713 22.2176 16.018 22.2176 15.29C22.2176 14.5527 22.3856 13.8993 22.7216 13.33C23.0576 12.7607 23.5149 12.3173 24.0936 12C24.6722 11.6733 25.3349 11.51 26.0816 11.51C26.8189 11.51 27.4769 11.6733 28.0556 12C28.6436 12.3173 29.1009 12.7607 29.4276 13.33C29.7636 13.89 29.9316 14.5433 29.9316 15.29C29.9316 16.0273 29.7636 16.6807 29.4276 17.25C29.1009 17.8193 28.6436 18.2673 28.0556 18.594C27.4769 18.9207 26.8189 19.084 26.0816 19.084ZM26.0816 17.908C26.5576 17.908 26.9822 17.8007 27.3556 17.586C27.7382 17.3713 28.0369 17.068 28.2516 16.676C28.4662 16.2747 28.5736 15.8127 28.5736 15.29C28.5736 14.758 28.4662 14.3007 28.2516 13.918C28.0369 13.526 27.7382 13.2227 27.3556 13.008C26.9822 12.7933 26.5576 12.686 26.0816 12.686C25.6056 12.686 25.1809 12.7933 24.8076 13.008C24.4342 13.2227 24.1356 13.526 23.9116 13.918C23.6876 14.3007 23.5756 14.758 23.5756 15.29C23.5756 15.8127 23.6876 16.2747 23.9116 16.676C24.1356 17.068 24.4342 17.3713 24.8076 17.586C25.1809 17.8007 25.6056 17.908 26.0816 17.908ZM37.9981 19.112C37.3074 19.112 36.6354 19.0047 35.9821 18.79C35.3381 18.5753 34.8107 18.286 34.4001 17.922L35.0441 16.816C35.3707 17.124 35.7954 17.376 36.3181 17.572C36.8407 17.768 37.4007 17.866 37.9981 17.866C38.7261 17.866 39.2907 17.712 39.6921 17.404C40.1027 17.0867 40.3081 16.662 40.3081 16.13C40.3081 15.6167 40.1121 15.206 39.7201 14.898C39.3374 14.5807 38.7261 14.422 37.8861 14.422H37.1021V13.442L40.0141 9.858L40.2101 10.418H34.8481V9.2H41.3161V10.152L38.4181 13.722L37.6901 13.288H38.1521C39.3374 13.288 40.2241 13.554 40.8121 14.086C41.4094 14.618 41.7081 15.2947 41.7081 16.116C41.7081 16.6667 41.5727 17.1707 41.3021 17.628C41.0314 18.0853 40.6207 18.4493 40.0701 18.72C39.5287 18.9813 38.8381 19.112 37.9981 19.112ZM44.6658 19V9.76L45.2678 10.418H42.4538V9.2H46.0518V19H44.6658ZM49.1194 19.084C48.8581 19.084 48.6341 18.9953 48.4474 18.818C48.2608 18.6313 48.1674 18.398 48.1674 18.118C48.1674 17.838 48.2608 17.6093 48.4474 17.432C48.6341 17.2547 48.8581 17.166 49.1194 17.166C49.3714 17.166 49.5861 17.2547 49.7634 17.432C49.9501 17.6093 50.0434 17.838 50.0434 18.118C50.0434 18.398 49.9501 18.6313 49.7634 18.818C49.5861 18.9953 49.3714 19.084 49.1194 19.084ZM52.8416 19V9.76L53.4436 10.418H50.6296V9.2H54.2276V19H52.8416ZM56.2172 19V18.048L60.2072 14.198C60.5619 13.862 60.8232 13.568 60.9912 13.316C61.1686 13.0547 61.2852 12.8167 61.3412 12.602C61.4066 12.378 61.4392 12.1633 61.4392 11.958C61.4392 11.454 61.2619 11.0573 60.9072 10.768C60.5526 10.4787 60.0346 10.334 59.3532 10.334C58.8306 10.334 58.3592 10.4227 57.9392 10.6C57.5192 10.768 57.1552 11.034 56.8472 11.398L55.8952 10.572C56.2686 10.096 56.7679 9.732 57.3932 9.48C58.0279 9.21867 58.7232 9.088 59.4792 9.088C60.1606 9.088 60.7532 9.2 61.2572 9.424C61.7612 9.63867 62.1486 9.95133 62.4192 10.362C62.6992 10.7727 62.8392 11.258 62.8392 11.818C62.8392 12.1353 62.7972 12.448 62.7132 12.756C62.6292 13.064 62.4706 13.3907 62.2372 13.736C62.0039 14.0813 61.6679 14.4687 61.2292 14.898L57.6732 18.328L57.3372 17.782H63.2592V19H56.2172ZM65.471 19.084C65.2097 19.084 64.9857 18.9953 64.799 18.818C64.6123 18.6313 64.519 18.398 64.519 18.118C64.519 17.838 64.6123 17.6093 64.799 17.432C64.9857 17.2547 65.2097 17.166 65.471 17.166C65.723 17.166 65.9377 17.2547 66.115 17.432C66.3017 17.6093 66.395 17.838 66.395 18.118C66.395 18.398 66.3017 18.6313 66.115 18.818C65.9377 18.9953 65.723 19.084 65.471 19.084ZM67.7016 19V18.048L71.6916 14.198C72.0463 13.862 72.3076 13.568 72.4756 13.316C72.6529 13.0547 72.7696 12.8167 72.8256 12.602C72.8909 12.378 72.9236 12.1633 72.9236 11.958C72.9236 11.454 72.7463 11.0573 72.3916 10.768C72.0369 10.4787 71.5189 10.334 70.8376 10.334C70.3149 10.334 69.8436 10.4227 69.4236 10.6C69.0036 10.768 68.6396 11.034 68.3316 11.398L67.3796 10.572C67.7529 10.096 68.2523 9.732 68.8776 9.48C69.5123 9.21867 70.2076 9.088 70.9636 9.088C71.6449 9.088 72.2376 9.2 72.7416 9.424C73.2456 9.63867 73.6329 9.95133 73.9036 10.362C74.1836 10.7727 74.3236 11.258 74.3236 11.818C74.3236 12.1353 74.2816 12.448 74.1976 12.756C74.1136 13.064 73.9549 13.3907 73.7216 13.736C73.4883 14.0813 73.1523 14.4687 72.7136 14.898L69.1576 18.328L68.8216 17.782H74.7436V19H67.7016ZM79.885 19.112C79.1197 19.112 78.4337 18.916 77.827 18.524C77.2297 18.132 76.7537 17.5627 76.399 16.816C76.0537 16.0693 75.881 15.164 75.881 14.1C75.881 13.036 76.0537 12.1307 76.399 11.384C76.7537 10.6373 77.2297 10.068 77.827 9.676C78.4337 9.284 79.1197 9.088 79.885 9.088C80.641 9.088 81.3223 9.284 81.929 9.676C82.5357 10.068 83.0117 10.6373 83.357 11.384C83.7023 12.1307 83.875 13.036 83.875 14.1C83.875 15.164 83.7023 16.0693 83.357 16.816C83.0117 17.5627 82.5357 18.132 81.929 18.524C81.3223 18.916 80.641 19.112 79.885 19.112ZM79.885 17.866C80.3983 17.866 80.8463 17.726 81.229 17.446C81.621 17.166 81.9243 16.746 82.139 16.186C82.363 15.626 82.475 14.9307 82.475 14.1C82.475 13.2693 82.363 12.574 82.139 12.014C81.9243 11.454 81.621 11.034 81.229 10.754C80.8463 10.474 80.3983 10.334 79.885 10.334C79.3717 10.334 78.919 10.474 78.527 10.754C78.135 11.034 77.827 11.454 77.603 12.014C77.3883 12.574 77.281 13.2693 77.281 14.1C77.281 14.9307 77.3883 15.626 77.603 16.186C77.827 16.746 78.135 17.166 78.527 17.446C78.919 17.726 79.3717 17.866 79.885 17.866ZM85.0649 19V18.048L89.0549 14.198C89.4095 13.862 89.6709 13.568 89.8389 13.316C90.0162 13.0547 90.1329 12.8167 90.1889 12.602C90.2542 12.378 90.2869 12.1633 90.2869 11.958C90.2869 11.454 90.1095 11.0573 89.7549 10.768C89.4002 10.4787 88.8822 10.334 88.2009 10.334C87.6782 10.334 87.2069 10.4227 86.7869 10.6C86.3669 10.768 86.0029 11.034 85.6949 11.398L84.7429 10.572C85.1162 10.096 85.6155 9.732 86.2409 9.48C86.8755 9.21867 87.5709 9.088 88.3269 9.088C89.0082 9.088 89.6009 9.2 90.1049 9.424C90.6089 9.63867 90.9962 9.95133 91.2669 10.362C91.5469 10.7727 91.6869 11.258 91.6869 11.818C91.6869 12.1353 91.6449 12.448 91.5609 12.756C91.4769 13.064 91.3182 13.3907 91.0849 13.736C90.8515 14.0813 90.5155 14.4687 90.0769 14.898L86.5209 18.328L86.1849 17.782H92.1069V19H85.0649ZM96.2539 19.112C95.5633 19.112 94.8913 19.0047 94.2379 18.79C93.5939 18.5753 93.0666 18.286 92.6559 17.922L93.2999 16.816C93.6266 17.124 94.0513 17.376 94.5739 17.572C95.0966 17.768 95.6566 17.866 96.2539 17.866C96.9819 17.866 97.5466 17.712 97.9479 17.404C98.3586 17.0867 98.5639 16.662 98.5639 16.13C98.5639 15.6167 98.3679 15.206 97.9759 14.898C97.5933 14.5807 96.9819 14.422 96.1419 14.422H95.3579V13.442L98.2699 9.858L98.4659 10.418H93.1039V9.2H99.5719V10.152L96.6739 13.722L95.9459 13.288H96.4079C97.5933 13.288 98.4799 13.554 99.0679 14.086C99.6653 14.618 99.9639 15.2947 99.9639 16.116C99.9639 16.6667 99.8286 17.1707 99.5579 17.628C99.2873 18.0853 98.8766 18.4493 98.3259 18.72C97.7846 18.9813 97.0939 19.112 96.2539 19.112ZM105.659 19V11.58H111.119V12.756H106.681L107.003 12.448V19H105.659ZM112.119 19.084C111.858 19.084 111.634 18.9953 111.447 18.818C111.261 18.6313 111.167 18.398 111.167 18.118C111.167 17.838 111.261 17.6093 111.447 17.432C111.634 17.2547 111.858 17.166 112.119 17.166C112.371 17.166 112.586 17.2547 112.763 17.432C112.95 17.6093 113.043 17.838 113.043 18.118C113.043 18.398 112.95 18.6313 112.763 18.818C112.586 18.9953 112.371 19.084 112.119 19.084Z" fill="#203686"/>
</svg>
