<svg width="141" height="38" viewBox="0 0 141 38" fill="none" xmlns="http://www.w3.org/2000/svg">
<rect width="141" height="38" rx="10" fill="#4ADD47"/>
<path fill-rule="evenodd" clip-rule="evenodd" d="M16 19C16 25.6274 21.3726 31 28 31C34.6274 31 40 25.6274 40 19C40 12.3726 34.6274 7 28 7C21.3726 7 16 12.3726 16 19ZM35.531 18.5392C35.5294 22.4726 32.3297 25.6731 28.3955 25.6747H28.3925C27.1983 25.6743 26.0249 25.3747 24.9826 24.8062L21.2 25.7984L22.2123 22.1009C21.5878 21.0187 21.2592 19.7912 21.2598 18.5336C21.2613 14.5993 24.4624 11.3984 28.3954 11.3984C30.3043 11.3993 32.0959 12.1424 33.4431 13.4911C34.7902 14.8398 35.5318 16.6326 35.531 18.5392Z" fill="white"/>
<path fill-rule="evenodd" clip-rule="evenodd" d="M22.9135 24.105L25.1582 23.5162L25.3748 23.6447C26.2853 24.1851 27.3292 24.471 28.3934 24.4714H28.3958C31.6647 24.4714 34.3252 21.8108 34.3265 18.5406C34.3271 16.9559 33.7108 15.4658 32.5911 14.3447C31.4713 13.2237 29.9822 12.606 28.3981 12.6055C25.1267 12.6055 22.4661 15.2658 22.4648 18.5358C22.4644 19.6564 22.7779 20.7478 23.3716 21.6921L23.5126 21.9165L22.9135 24.105ZM31.7465 20.0754C31.8708 20.1355 31.9548 20.1761 31.9907 20.236C32.0352 20.3103 32.0352 20.6673 31.8867 21.0838C31.7381 21.5003 31.0258 21.8804 30.6832 21.9316C30.3761 21.9775 29.9873 21.9967 29.5602 21.8609C29.3013 21.7788 28.9692 21.6691 28.5438 21.4853C26.8723 20.7636 25.7428 19.1436 25.5293 18.8374C25.5143 18.816 25.5039 18.801 25.498 18.7932L25.4966 18.7913C25.4022 18.6654 24.77 17.8218 24.77 16.9488C24.77 16.1275 25.1734 15.6971 25.3591 15.4989C25.3719 15.4853 25.3836 15.4729 25.394 15.4614C25.5575 15.2829 25.7506 15.2383 25.8695 15.2383C25.9883 15.2383 26.1073 15.2394 26.2112 15.2446C26.224 15.2452 26.2374 15.2452 26.2511 15.2451C26.355 15.2445 26.4846 15.2437 26.6124 15.5507C26.6615 15.6688 26.7334 15.8439 26.8093 16.0286C26.9627 16.4021 27.1322 16.8148 27.1621 16.8745C27.2066 16.9638 27.2364 17.0678 27.1769 17.1869C27.168 17.2047 27.1598 17.2216 27.1519 17.2377C27.1072 17.3288 27.0744 17.3958 26.9986 17.4843C26.9688 17.5191 26.9381 17.5566 26.9073 17.5941C26.8459 17.6688 26.7846 17.7435 26.7312 17.7967C26.6419 17.8856 26.549 17.982 26.653 18.1605C26.757 18.339 27.1149 18.9229 27.6449 19.3956C28.2146 19.9039 28.7098 20.1186 28.9608 20.2275C29.0099 20.2488 29.0496 20.266 29.0787 20.2806C29.2569 20.3699 29.3609 20.3549 29.4649 20.236C29.569 20.117 29.9106 19.7153 30.0295 19.5369C30.1483 19.3584 30.2672 19.3882 30.4306 19.4476C30.5941 19.5072 31.4707 19.9385 31.649 20.0277C31.6838 20.0451 31.7163 20.0609 31.7465 20.0754Z" fill="white"/>
<path d="M51.667 24.5L48.419 14.7H50.309L53.207 23.562H52.269L55.279 14.7H56.959L59.885 23.562H58.975L61.943 14.7H63.679L60.431 24.5H58.499L55.825 16.506H56.329L53.613 24.5H51.667ZM69.4408 16.94C70.0381 16.94 70.5701 17.0567 71.0368 17.29C71.5128 17.5233 71.8861 17.8827 72.1568 18.368C72.4274 18.844 72.5628 19.46 72.5628 20.216V24.5H70.8128V20.44C70.8128 19.7773 70.6541 19.2827 70.3368 18.956C70.0288 18.6293 69.5948 18.466 69.0348 18.466C68.6241 18.466 68.2601 18.55 67.9428 18.718C67.6254 18.886 67.3781 19.138 67.2008 19.474C67.0328 19.8007 66.9488 20.216 66.9488 20.72V24.5H65.1988V14.112H66.9488V19.04L66.5708 18.424C66.8321 17.948 67.2101 17.584 67.7048 17.332C68.2088 17.0707 68.7874 16.94 69.4408 16.94ZM79.3888 24.5V22.988L79.2908 22.666V20.02C79.2908 19.5067 79.1368 19.11 78.8288 18.83C78.5208 18.5407 78.0541 18.396 77.4288 18.396C77.0088 18.396 76.5934 18.4613 76.1828 18.592C75.7814 18.7227 75.4408 18.9047 75.1608 19.138L74.4748 17.864C74.8761 17.556 75.3521 17.3273 75.9028 17.178C76.4628 17.0193 77.0414 16.94 77.6388 16.94C78.7214 16.94 79.5568 17.2013 80.1448 17.724C80.7421 18.2373 81.0408 19.0353 81.0408 20.118V24.5H79.3888ZM77.0368 24.598C76.4768 24.598 75.9868 24.5047 75.5668 24.318C75.1468 24.122 74.8201 23.856 74.5868 23.52C74.3628 23.1747 74.2508 22.7873 74.2508 22.358C74.2508 21.938 74.3488 21.56 74.5448 21.224C74.7501 20.888 75.0814 20.622 75.5388 20.426C75.9961 20.23 76.6028 20.132 77.3588 20.132H79.5288V21.294H77.4848C76.8874 21.294 76.4861 21.392 76.2808 21.588C76.0754 21.7747 75.9728 22.008 75.9728 22.288C75.9728 22.6053 76.0988 22.8573 76.3508 23.044C76.6028 23.2307 76.9528 23.324 77.4008 23.324C77.8301 23.324 78.2128 23.226 78.5488 23.03C78.8941 22.834 79.1414 22.5447 79.2908 22.162L79.5848 23.212C79.4168 23.6507 79.1134 23.9913 78.6748 24.234C78.2454 24.4767 77.6994 24.598 77.0368 24.598ZM86.1007 24.598C85.2793 24.598 84.6447 24.388 84.1967 23.968C83.7487 23.5387 83.5247 22.9087 83.5247 22.078V15.372H85.2747V22.036C85.2747 22.3907 85.3633 22.666 85.5407 22.862C85.7273 23.058 85.984 23.156 86.3107 23.156C86.7027 23.156 87.0293 23.0533 87.2907 22.848L87.7807 24.094C87.5753 24.262 87.3233 24.388 87.0247 24.472C86.726 24.556 86.418 24.598 86.1007 24.598ZM82.2927 18.48V17.08H87.2767V18.48H82.2927ZM91.5303 24.598C90.9049 24.598 90.3029 24.5187 89.7243 24.36C89.1549 24.192 88.7023 23.9913 88.3663 23.758L89.0383 22.428C89.3743 22.6427 89.7756 22.82 90.2423 22.96C90.7089 23.1 91.1756 23.17 91.6423 23.17C92.1929 23.17 92.5896 23.0953 92.8323 22.946C93.0843 22.7967 93.2103 22.596 93.2103 22.344C93.2103 22.1387 93.1263 21.9847 92.9583 21.882C92.7903 21.77 92.5709 21.686 92.3003 21.63C92.0296 21.574 91.7263 21.5227 91.3903 21.476C91.0636 21.4293 90.7323 21.3687 90.3963 21.294C90.0696 21.21 89.7709 21.0933 89.5003 20.944C89.2296 20.7853 89.0103 20.5753 88.8423 20.314C88.6743 20.0527 88.5903 19.7073 88.5903 19.278C88.5903 18.802 88.7256 18.3913 88.9963 18.046C89.2669 17.6913 89.6449 17.4207 90.1303 17.234C90.6249 17.038 91.2083 16.94 91.8803 16.94C92.3843 16.94 92.8929 16.996 93.4063 17.108C93.9196 17.22 94.3443 17.3787 94.6803 17.584L94.0083 18.914C93.6536 18.6993 93.2943 18.5547 92.9303 18.48C92.5756 18.396 92.2209 18.354 91.8663 18.354C91.3343 18.354 90.9376 18.4333 90.6763 18.592C90.4243 18.7507 90.2983 18.9513 90.2983 19.194C90.2983 19.418 90.3823 19.586 90.5503 19.698C90.7183 19.81 90.9376 19.8987 91.2083 19.964C91.4789 20.0293 91.7776 20.0853 92.1043 20.132C92.4403 20.1693 92.7716 20.23 93.0983 20.314C93.4249 20.398 93.7236 20.5147 93.9943 20.664C94.2743 20.804 94.4983 21.0047 94.6663 21.266C94.8343 21.5273 94.9183 21.868 94.9183 22.288C94.9183 22.7547 94.7783 23.1607 94.4983 23.506C94.2276 23.8513 93.8403 24.122 93.3363 24.318C92.8323 24.5047 92.2303 24.598 91.5303 24.598ZM95.2073 24.5L99.6173 14.7H101.409L105.833 24.5H103.929L100.135 15.666H100.863L97.0833 24.5H95.2073ZM97.2373 22.232L97.7273 20.804H103.019L103.509 22.232H97.2373ZM111.056 24.598C110.449 24.598 109.894 24.458 109.39 24.178C108.895 23.898 108.498 23.478 108.2 22.918C107.91 22.3487 107.766 21.63 107.766 20.762C107.766 19.8847 107.906 19.166 108.186 18.606C108.475 18.046 108.867 17.6307 109.362 17.36C109.856 17.08 110.421 16.94 111.056 16.94C111.793 16.94 112.442 17.0987 113.002 17.416C113.571 17.7333 114.019 18.1767 114.346 18.746C114.682 19.3153 114.85 19.9873 114.85 20.762C114.85 21.5367 114.682 22.2133 114.346 22.792C114.019 23.3613 113.571 23.8047 113.002 24.122C112.442 24.4393 111.793 24.598 111.056 24.598ZM106.912 27.216V17.024H108.578V18.788L108.522 20.776L108.662 22.764V27.216H106.912ZM110.86 23.1C111.28 23.1 111.653 23.0067 111.98 22.82C112.316 22.6333 112.582 22.3627 112.778 22.008C112.974 21.6533 113.072 21.238 113.072 20.762C113.072 20.2767 112.974 19.8613 112.778 19.516C112.582 19.1613 112.316 18.8907 111.98 18.704C111.653 18.5173 111.28 18.424 110.86 18.424C110.44 18.424 110.062 18.5173 109.726 18.704C109.39 18.8907 109.124 19.1613 108.928 19.516C108.732 19.8613 108.634 20.2767 108.634 20.762C108.634 21.238 108.732 21.6533 108.928 22.008C109.124 22.3627 109.39 22.6333 109.726 22.82C110.062 23.0067 110.44 23.1 110.86 23.1ZM120.653 24.598C120.047 24.598 119.491 24.458 118.987 24.178C118.493 23.898 118.096 23.478 117.797 22.918C117.508 22.3487 117.363 21.63 117.363 20.762C117.363 19.8847 117.503 19.166 117.783 18.606C118.073 18.046 118.465 17.6307 118.959 17.36C119.454 17.08 120.019 16.94 120.653 16.94C121.391 16.94 122.039 17.0987 122.599 17.416C123.169 17.7333 123.617 18.1767 123.943 18.746C124.279 19.3153 124.447 19.9873 124.447 20.762C124.447 21.5367 124.279 22.2133 123.943 22.792C123.617 23.3613 123.169 23.8047 122.599 24.122C122.039 24.4393 121.391 24.598 120.653 24.598ZM116.509 27.216V17.024H118.175V18.788L118.119 20.776L118.259 22.764V27.216H116.509ZM120.457 23.1C120.877 23.1 121.251 23.0067 121.577 22.82C121.913 22.6333 122.179 22.3627 122.375 22.008C122.571 21.6533 122.669 21.238 122.669 20.762C122.669 20.2767 122.571 19.8613 122.375 19.516C122.179 19.1613 121.913 18.8907 121.577 18.704C121.251 18.5173 120.877 18.424 120.457 18.424C120.037 18.424 119.659 18.5173 119.323 18.704C118.987 18.8907 118.721 19.1613 118.525 19.516C118.329 19.8613 118.231 20.2767 118.231 20.762C118.231 21.238 118.329 21.6533 118.525 22.008C118.721 22.3627 118.987 22.6333 119.323 22.82C119.659 23.0067 120.037 23.1 120.457 23.1Z" fill="white"/>
</svg>
