<svg width="25" height="24" viewBox="0 0 25 24" fill="none" xmlns="http://www.w3.org/2000/svg">
<path fill-rule="evenodd" clip-rule="evenodd" d="M0.5 12C0.5 18.6274 5.87258 24 12.5 24C19.1274 24 24.5 18.6274 24.5 12C24.5 5.37258 19.1274 0 12.5 0C5.87258 0 0.5 5.37258 0.5 12ZM20.031 11.5392C20.0294 15.4726 16.8297 18.6731 12.8955 18.6747H12.8925C11.6983 18.6743 10.5249 18.3747 9.48263 17.8062L5.69995 18.7984L6.71226 15.1009C6.08782 14.0187 5.75924 12.7912 5.75978 11.5336C5.76134 7.59928 8.96236 4.39844 12.8954 4.39844C14.8043 4.39926 16.5959 5.14237 17.9431 6.49114C19.2902 7.83985 20.0318 9.6326 20.031 11.5392Z" fill="white"/>
<path fill-rule="evenodd" clip-rule="evenodd" d="M7.4135 17.105L9.65819 16.5162L9.87476 16.6447C10.7853 17.1851 11.8292 17.471 12.8934 17.4714H12.8958C16.1647 17.4714 18.8252 14.8108 18.8265 11.5406C18.8271 9.95585 18.2108 8.46579 17.0911 7.34474C15.9713 6.2237 14.4822 5.60602 12.8981 5.60547C9.62672 5.60547 6.96614 8.2658 6.96484 11.5358C6.96438 12.6564 7.27794 13.7478 7.87162 14.6921L8.01264 14.9165L7.4135 17.105ZM16.2465 13.0754C16.3708 13.1355 16.4548 13.1761 16.4907 13.236C16.5352 13.3103 16.5352 13.6673 16.3867 14.0838C16.2381 14.5003 15.5258 14.8804 15.1832 14.9316C14.8761 14.9775 14.4873 14.9967 14.0602 14.8609C13.8013 14.7788 13.4692 14.6691 13.0438 14.4853C11.3723 13.7636 10.2428 12.1436 10.0293 11.8374C10.0143 11.816 10.0039 11.801 9.99804 11.7932L9.9966 11.7913C9.90224 11.6654 9.27002 10.8218 9.27002 9.94879C9.27002 9.12752 9.67344 8.69706 9.85913 8.49891C9.87186 8.48534 9.88356 8.47285 9.89404 8.46141C10.0575 8.28291 10.2506 8.23828 10.3695 8.23828C10.4883 8.23828 10.6073 8.23938 10.7112 8.2446C10.724 8.24524 10.7374 8.24516 10.7511 8.24508C10.855 8.24447 10.9846 8.24371 11.1124 8.55066C11.1615 8.66878 11.2334 8.8439 11.3093 9.0286C11.4627 9.40211 11.6322 9.81479 11.6621 9.87451C11.7066 9.96376 11.7364 10.0678 11.6769 10.1869C11.668 10.2047 11.6598 10.2216 11.6519 10.2377C11.6072 10.3288 11.5744 10.3958 11.4986 10.4843C11.4688 10.5191 11.4381 10.5566 11.4073 10.5941C11.3459 10.6688 11.2846 10.7435 11.2312 10.7967C11.1419 10.8856 11.049 10.982 11.153 11.1605C11.257 11.339 11.6149 11.9229 12.1449 12.3956C12.7146 12.9039 13.2098 13.1186 13.4608 13.2275C13.5099 13.2488 13.5496 13.266 13.5787 13.2806C13.7569 13.3699 13.8609 13.3549 13.9649 13.236C14.069 13.117 14.4106 12.7153 14.5295 12.5369C14.6483 12.3584 14.7672 12.3882 14.9306 12.4476C15.0941 12.5072 15.9707 12.9385 16.149 13.0277C16.1838 13.0451 16.2163 13.0609 16.2465 13.0754Z" fill="white"/>
</svg>
