<svg width="23" height="20" viewBox="0 0 23 20" fill="none" xmlns="http://www.w3.org/2000/svg">
<path fill-rule="evenodd" clip-rule="evenodd" d="M18.2981 2C18.2981 3.10457 19.3079 4 20.5534 4C21.799 4 22.8087 3.10457 22.8087 2C22.8087 0.89543 21.799 0 20.5534 0C19.3079 0 18.2981 0.89543 18.2981 2ZM20.5534 12C19.3079 12 18.2981 11.1046 18.2981 10C18.2981 8.89543 19.3079 8 20.5534 8C21.799 8 22.8087 8.89543 22.8087 10C22.8087 11.1046 21.799 12 20.5534 12ZM20.5534 20C19.3079 20 18.2981 19.1046 18.2981 18C18.2981 16.8954 19.3079 16 20.5534 16C21.799 16 22.8087 16.8954 22.8087 18C22.8087 19.1046 21.799 20 20.5534 20ZM11.5323 20C10.2867 20 9.277 19.1046 9.277 18C9.277 16.8954 10.2867 16 11.5323 16C12.7778 16 13.7876 16.8954 13.7876 18C13.7876 19.1046 12.7778 20 11.5323 20ZM9.277 10C9.277 11.1046 10.2867 12 11.5323 12C12.7778 12 13.7876 11.1046 13.7876 10C13.7876 8.89543 12.7778 8 11.5323 8C10.2867 8 9.277 8.89543 9.277 10ZM11.5323 4C10.2867 4 9.277 3.10457 9.277 2C9.277 0.89543 10.2867 0 11.5323 0C12.7778 0 13.7876 0.89543 13.7876 2C13.7876 3.10457 12.7778 4 11.5323 4ZM0.255859 18C0.255859 19.1046 1.26559 20 2.51115 20C3.75671 20 4.76643 19.1046 4.76643 18C4.76643 16.8954 3.75671 16 2.51115 16C1.26559 16 0.255859 16.8954 0.255859 18ZM2.51115 12C1.26559 12 0.255859 11.1046 0.255859 10C0.255859 8.89543 1.26559 8 2.51115 8C3.75671 8 4.76643 8.89543 4.76643 10C4.76643 11.1046 3.75671 12 2.51115 12ZM0.255859 2C0.255859 3.10457 1.26559 4 2.51115 4C3.75671 4 4.76643 3.10457 4.76643 2C4.76643 0.89543 3.75671 0 2.51115 0C1.26559 0 0.255859 0.89543 0.255859 2Z" fill="white"/>
</svg>
