<svg width="24" height="24" viewBox="0 0 24 24" fill="none" xmlns="http://www.w3.org/2000/svg">
<g id="Favorites">
<path id="icon" fill-rule="evenodd" clip-rule="evenodd" d="M10.4582 2.73137C11.0985 3.05564 11.6198 3.43518 12 3.75429C12.3803 3.43518 12.9015 3.05564 13.5417 2.73137C14.9927 1.99652 17.0809 1.54203 19.4293 2.73136C20.9294 3.49109 21.9442 4.64064 22.4968 6.03634C23.0419 7.41328 23.116 8.97211 22.8536 10.5537C22.4065 13.2483 20.5648 15.6527 18.6732 17.5053C16.7581 19.381 14.6582 20.8196 13.4739 21.5696C12.5675 22.1438 11.4326 22.1438 10.5261 21.5696C9.34185 20.8196 7.24191 19.3811 5.32674 17.5053C3.43518 15.6527 1.59341 13.2483 1.14632 10.5537C0.883901 8.97211 0.957972 7.41328 1.50313 6.03634C2.05573 4.64064 3.07049 3.49109 4.5706 2.73136C6.919 1.54203 9.00728 1.99653 10.4582 2.73137ZM11.2382 5.78568C11.4281 6.00914 11.7067 6.13797 12.0001 6.13797C12.2929 6.13796 12.571 6.00958 12.7609 5.78684C12.7612 5.78658 12.7614 5.78633 12.7616 5.78607C12.7618 5.78577 12.7621 5.78547 12.7624 5.78516L12.7775 5.76813C12.7931 5.75086 12.8192 5.72242 12.8555 5.68492C12.9281 5.60976 13.0402 5.49925 13.188 5.37001C13.4857 5.10957 13.9154 4.78403 14.4454 4.51559C15.4864 3.98837 16.8869 3.68562 18.5257 4.51559C19.5957 5.05748 20.2669 5.83735 20.6372 6.77259C21.0149 7.72659 21.1006 8.9002 20.8806 10.2263C20.5391 12.2841 19.0718 14.3155 17.2738 16.0765C15.4995 17.8143 13.5295 19.167 12.4038 19.88C12.1507 20.0403 11.8493 20.0403 11.5963 19.88C10.4705 19.167 8.50054 17.8143 6.72617 16.0765C4.92818 14.3155 3.46078 12.2841 3.11934 10.2263C2.89931 8.9002 2.98498 7.72659 3.36269 6.77259C3.73297 5.83735 4.40422 5.05748 5.47421 4.51559C7.11305 3.68562 8.51359 3.98836 9.55463 4.5156C10.0847 4.78403 10.5144 5.10958 10.8121 5.37002C10.9598 5.49927 11.072 5.60978 11.1446 5.68494C11.1809 5.72244 11.207 5.75088 11.2226 5.76815L11.2382 5.78568Z" fill="white"/>
</g>
</svg>
