<svg width="25" height="24" viewBox="0 0 25 24" fill="none" xmlns="http://www.w3.org/2000/svg">
<path fill-rule="evenodd" clip-rule="evenodd" d="M0.5 12C0.5 18.6274 5.87258 24 12.5 24C19.1274 24 24.5 18.6274 24.5 12C24.5 5.37258 19.1274 0 12.5 0C5.87258 0 0.5 5.37258 0.5 12ZM10.3 17.5007L10.5041 14.4419L10.504 14.4417L16.0684 9.42023C16.3126 9.20349 16.0151 9.09779 15.6909 9.29438L8.82361 13.6269L5.85731 12.7011C5.21672 12.5049 5.21212 12.0647 6.00113 11.7483L17.5601 7.29115C18.0881 7.05147 18.5976 7.41795 18.3961 8.22598L16.4276 17.5023C16.2901 18.1615 15.8918 18.3191 15.34 18.0146L12.3413 15.7992L10.9 17.2007C10.8954 17.2051 10.8909 17.2095 10.8864 17.2139C10.7252 17.3709 10.5918 17.5007 10.3 17.5007Z" fill="white"/>
</svg>
