<svg width="26" height="18" viewBox="0 0 26 18" fill="none" xmlns="http://www.w3.org/2000/svg">
<path fill-rule="evenodd" clip-rule="evenodd" d="M2.58775 3.7073C4.19426 2.04039 6.97121 0.441712 11.6467 0.51513C14.8951 0.566826 17.7948 1.51461 19.8728 2.45212C20.9134 2.92156 21.7532 3.39076 22.3341 3.74916C22.6243 3.92823 22.852 4.08089 23.0092 4.19348C23.0556 4.22666 23.0972 4.25738 23.1334 4.28507H23.4266V5.46761L23.4234 5.46759V7.98315C24.5372 8.4379 25.1772 9.36134 25.5297 10.1901C25.7465 10.6998 25.863 11.1895 25.921 11.5499C25.95 11.73 25.9654 11.8835 25.9705 11.9966C25.973 12.0504 25.9738 12.1074 25.9699 12.1579C25.9697 12.1607 25.9694 12.1646 25.969 12.1692C25.9695 12.2908 25.9701 12.4594 25.9705 12.6549C25.9713 13.0559 25.9713 13.5711 25.9681 14.025C25.9658 14.339 25.8774 14.6051 25.7146 14.8144C25.5554 15.0189 25.3515 15.1352 25.1721 15.201C24.994 15.2663 24.824 15.2881 24.7043 15.295C24.6431 15.2985 24.5912 15.2984 24.5531 15.2972C24.5424 15.2969 24.5327 15.2965 24.5241 15.296L24.3851 15.3043C24.2763 15.3107 24.1174 15.3202 23.9173 15.3323C23.5173 15.3565 22.9527 15.3911 22.2949 15.4328C20.9789 15.516 19.291 15.6272 17.8003 15.7391C16.355 15.846 15.3575 16.112 14.373 16.424C14.1819 16.4845 13.9898 16.5474 13.794 16.6114C12.98 16.8777 12.103 17.1646 10.9679 17.3951C7.57533 18.0844 5.14433 17.4907 2.98923 16.3776C1.81396 15.7696 1.18071 14.948 0.844972 14.265C0.678301 13.926 0.586203 13.6241 0.535469 13.4032C0.510071 13.2926 0.494924 13.2018 0.48597 13.1362C0.48149 13.1033 0.478551 13.0767 0.476653 13.057L0.474521 13.0326L0.473922 13.0244L0.473719 13.0213L0.473639 13.02C0.473623 13.0197 0.473572 13.0189 0.93704 12.9914L0.473572 13.0189L0.472754 13.0052V8.62337H0.473785C0.433263 8.20381 0.453155 7.84352 0.486854 7.57509C0.506588 7.41789 0.531171 7.29128 0.551566 7.20156C0.561772 7.15666 0.570953 7.12089 0.577998 7.09502C0.581481 7.08223 0.584444 7.07186 0.586754 7.06398L0.589749 7.05217C0.593734 7.0368 0.599431 7.01553 0.607031 6.98876C0.622229 6.93523 0.645058 6.85966 0.677056 6.76524C0.741025 6.57649 0.841831 6.31184 0.991903 5.99704C1.29187 5.36779 1.79036 4.53466 2.58775 3.7073ZM1.48628 7.29439L1.48262 7.30988L1.4781 7.32427C1.47803 7.32452 1.47793 7.32486 1.4778 7.32528L1.47394 7.33902C1.47017 7.35287 1.46419 7.3759 1.45704 7.40738C1.44271 7.4704 1.42375 7.56682 1.40819 7.69075C1.37701 7.93912 1.35996 8.29428 1.41913 8.71081C1.42165 8.72857 1.42431 8.74644 1.42712 8.76444L6.72798 2.16229C5.14885 2.72441 4.03578 3.54294 3.25635 4.35167C2.54086 5.09406 2.09563 5.83962 1.8301 6.39662C1.69743 6.67494 1.61004 6.9053 1.5565 7.06329C1.52974 7.14223 1.51149 7.20296 1.50029 7.24239C1.4947 7.2621 1.49087 7.27647 1.48863 7.28512L1.48628 7.29439C1.4863 7.2943 1.48623 7.29458 1.48628 7.29439ZM8.26069 1.7365L1.75471 9.8396C2.02263 10.4161 2.47081 11.0338 3.20857 11.6204C3.52255 11.8701 3.85163 12.0953 4.19095 12.2962L7.23142 8.34043C7.38769 8.13713 7.67917 8.09899 7.88248 8.25525C8.08578 8.41151 8.12392 8.703 7.96765 8.9063L5.02598 12.7336C6.45497 13.3903 7.98786 13.6504 9.3006 13.5249L13.1057 8.18159C12.9685 8.14715 12.8134 8.09666 12.6558 8.0223C12.4087 7.9056 12.1419 7.72337 11.9374 7.43929C11.7291 7.15006 11.6053 6.78245 11.6073 6.33325C11.6094 5.8883 11.7303 5.52506 11.9346 5.23988C12.136 4.9589 12.3981 4.78169 12.6415 4.67039C12.8837 4.55967 13.1195 4.50843 13.2903 4.48406C13.3769 4.47171 13.45 4.46583 13.5032 4.46304C13.5298 4.46163 13.5517 4.461 13.5679 4.46073L13.5882 4.46055L13.595 4.46058L13.5976 4.4606L13.5987 4.46061L16.2339 4.48163L17.6417 2.55993C16.3873 2.12229 14.9579 1.7504 13.4188 1.56589L10.4898 5.37968C10.3337 5.58304 10.0422 5.62129 9.83883 5.46511C9.63547 5.30893 9.59722 5.01746 9.7534 4.8141L12.3226 1.46879C12.0943 1.4558 11.8641 1.44728 11.6321 1.44359M18.5456 2.89738L17.3783 4.49076L21.8251 4.52624C21.2755 4.18839 20.4789 3.74423 19.491 3.29854C19.1923 3.16382 18.8767 3.02916 18.5456 2.89738ZM22.4948 5.46018L13.5889 5.38913L13.5833 5.38918C13.5774 5.38927 13.5667 5.38955 13.5519 5.39033C13.5222 5.39189 13.4769 5.39542 13.4214 5.40334C13.3081 5.41949 13.1648 5.45215 13.0276 5.51489C12.8916 5.57706 12.7739 5.6629 12.6894 5.78075C12.608 5.89441 12.5371 6.0658 12.5359 6.33746C12.5347 6.60489 12.6055 6.778 12.6909 6.89675C12.7801 7.02065 12.9062 7.11365 13.0523 7.1826C13.199 7.25188 13.3519 7.29007 13.4722 7.31029C13.5312 7.32022 13.5795 7.32534 13.6113 7.32794C13.6272 7.32923 13.6388 7.32988 13.6454 7.33019L13.6477 7.33028L13.7081 7.33003C13.7533 7.32988 13.8198 7.32972 13.9053 7.32967C14.0764 7.32957 14.3237 7.32994 14.6292 7.3318C15.2403 7.33552 16.0849 7.34521 17.0194 7.36907C18.8408 7.41558 21.033 7.5165 22.4948 7.73785V5.46018ZM14.1909 8.25851C14.3168 8.25881 14.462 8.25937 14.6236 8.26036C15.2303 8.26405 16.0687 8.27367 16.9957 8.29734C17.5192 8.3107 18.0685 8.32851 18.6186 8.35209L15.9572 12.0559C15.0698 12.2079 14.1357 12.4328 13.2392 12.6585C13.0267 12.712 12.8165 12.7655 12.6095 12.8182C11.891 13.0011 11.2096 13.1745 10.596 13.3067L14.1909 8.25851ZM17.2176 11.8932C17.2768 11.8886 17.3355 11.8846 17.3938 11.8811C18.6152 11.8091 20.6237 11.7472 22.3316 11.7102C23.1864 11.6917 23.9688 11.6794 24.5428 11.6751C24.7144 11.6739 24.8682 11.6733 25.0003 11.6736C24.9502 11.3728 24.8519 10.9688 24.6752 10.5536C24.3118 9.69914 23.6505 8.86062 22.4413 8.66918C21.703 8.5523 20.7408 8.46822 19.722 8.40792L17.2176 11.8932ZM25.0418 12.6022C24.9053 12.6018 24.7398 12.6023 24.5497 12.6037C23.9815 12.6079 23.2039 12.6201 22.3517 12.6386C20.6454 12.6755 18.6515 12.7371 17.4485 12.8081C16.2863 12.8766 14.876 13.2039 13.4659 13.559C13.2607 13.6107 13.0551 13.663 12.8504 13.7152C11.674 14.0149 10.5249 14.3076 9.6183 14.4236C7.43291 14.7033 4.72446 14.0121 2.63066 12.3473C2.11068 11.9338 1.70927 11.5011 1.40133 11.0685V12.9718C1.40218 12.9802 1.40365 12.9933 1.40602 13.0107C1.41153 13.051 1.42185 13.1142 1.44048 13.1953C1.4778 13.3578 1.548 13.5903 1.67829 13.8554C1.93647 14.3806 2.43606 15.0459 3.41535 15.5526C5.40074 16.578 7.61722 17.1283 10.7831 16.4851C11.8607 16.2663 12.6789 15.9988 13.4883 15.7342C13.689 15.6687 13.8891 15.6032 14.0925 15.5388C15.1182 15.2137 16.1899 14.9272 17.7313 14.8131C19.2272 14.7008 20.9191 14.5894 22.2363 14.506C22.8951 14.4644 23.4605 14.4297 23.8613 14.4055C24.0616 14.3933 24.2209 14.3838 24.33 14.3773L24.4977 14.3674L24.5344 14.3653L24.5663 14.3684C24.5683 14.3685 24.574 14.3689 24.5815 14.3691C24.5966 14.3695 24.6207 14.3697 24.6506 14.368C24.7133 14.3643 24.7867 14.3532 24.8524 14.3291C24.9167 14.3056 24.957 14.276 24.9818 14.244C25.003 14.2169 25.0385 14.156 25.0395 14.0183C25.0427 13.5686 25.0428 13.0568 25.0419 12.6567C25.0419 12.6383 25.0419 12.6202 25.0418 12.6022ZM1.40032 12.9609C1.40029 12.9604 1.4003 12.9605 1.40032 12.9609V12.9609ZM8.26069 1.7365C9.23931 1.53397 10.3568 1.42357 11.6321 1.44359L8.26069 1.7365ZM8.88993 6.92945C8.913 6.92945 8.93171 6.91075 8.93171 6.88766C8.93171 6.86458 8.913 6.84588 8.88993 6.84588C8.86685 6.84588 8.84814 6.86459 8.84814 6.88766C8.84814 6.91073 8.86684 6.92945 8.88993 6.92945ZM8.00314 6.88766C8.00314 6.3979 8.40018 6.00088 8.88993 6.00088C9.37969 6.00088 9.77671 6.39791 9.77671 6.88766C9.77671 7.37742 9.37969 7.77445 8.88993 7.77445C8.40018 7.77445 8.00314 7.37743 8.00314 6.88766Z" fill="#203686"/>
</svg>
