<svg width="30" height="30" viewBox="0 0 30 30" fill="none" xmlns="http://www.w3.org/2000/svg">
<mask id="path-1-outside-1_2710_89584" maskUnits="userSpaceOnUse" x="0" y="0" width="30" height="30" fill="black">
<rect fill="white" width="30" height="30"/>
<path d="M15 29C13.1103 29 11.2767 28.6298 9.55055 27.8996C7.88351 27.1944 6.3863 26.185 5.10046 24.8995C3.81496 23.614 2.80529 22.1168 2.10039 20.4494C1.37023 18.7233 1 16.8897 1 15C1 13.1103 1.37023 11.2767 2.10039 9.55055C2.80563 7.88351 3.81496 6.3863 5.10046 5.10046C6.38597 3.81496 7.88318 2.80529 9.55055 2.10039C11.2767 1.37023 13.1103 1 15 1C16.8897 1 18.7233 1.37023 20.4494 2.10039C22.1165 2.80563 23.6137 3.81496 24.8995 5.10046C26.185 6.38597 27.1947 7.88318 27.8996 9.55055C28.6298 11.2767 29 13.1103 29 15C29 16.8897 28.6298 18.7233 27.8996 20.4494C27.1944 22.1165 26.185 23.6137 24.8995 24.8995C23.614 26.185 22.1168 27.1947 20.4494 27.8996C18.7233 28.6298 16.8897 29 15 29ZM15 1.66469C7.64688 1.66469 1.66469 7.64688 1.66469 15C1.66469 22.3531 7.64688 28.3353 15 28.3353C22.3531 28.3353 28.3353 22.3531 28.3353 15C28.3353 7.64688 22.3531 1.66469 15 1.66469Z"/>
<path d="M6.59981 9.79147C6.537 9.79147 6.47319 9.77353 6.41702 9.7363C6.26381 9.63527 6.22193 9.42888 6.32297 9.27567C8.25522 6.35138 11.4992 4.60557 14.9998 4.60557C15.3199 4.60557 15.6429 4.62019 15.9596 4.64944C16.1424 4.66606 16.277 4.82791 16.2604 5.0107C16.2438 5.19349 16.0819 5.32776 15.8991 5.31147C15.6023 5.28422 15.2996 5.27059 14.9998 5.27059C11.7229 5.27059 8.6866 6.90506 6.87732 9.64258C6.81351 9.73896 6.70749 9.79147 6.59981 9.79147Z"/>
<path d="M15.2608 25.28C14.0793 25.28 12.9208 25.0819 11.8104 24.6894C11.6373 24.6283 11.5466 24.4385 11.6077 24.2654C11.6689 24.0922 11.8586 24.0015 12.0318 24.0626C13.2036 24.4767 14.4333 24.6595 15.6866 24.606C18.7338 24.4757 21.487 22.9672 23.2407 20.467C23.3461 20.3168 23.5535 20.2802 23.7037 20.3859C23.8539 20.4916 23.8905 20.6986 23.7848 20.8489C22.8885 22.127 21.6963 23.2038 20.3377 23.9636C18.9126 24.7605 17.3573 25.1999 15.7148 25.2704C15.5633 25.2767 15.4117 25.28 15.2608 25.28Z"/>
<path d="M7.90843 23.4699C7.17758 23.4209 6.50197 23.1045 5.99384 22.5702C5.45708 22.0059 5.17222 21.2663 5.19175 20.4879C5.2154 19.5485 5.69477 18.6729 6.4736 18.1452C6.59294 18.0643 6.75111 18.0699 6.86474 18.1588C7.32174 18.5165 7.80465 18.8407 8.29973 19.1223C8.63918 19.3156 8.99043 19.492 9.34409 19.6473C9.34701 19.6485 9.34959 19.6497 9.35251 19.6509C9.81455 19.8541 10.2946 20.0271 10.7793 20.1649C10.9182 20.2045 11.0158 20.3293 11.0205 20.4735C11.0222 20.5262 11.0223 20.5802 11.021 20.6344C11.0015 21.4129 10.6801 22.1371 10.1155 22.6738C9.55129 23.2106 8.81174 23.4951 8.03329 23.4756C7.99173 23.4745 7.94988 23.4727 7.90843 23.4699ZM6.65868 18.8378C6.16868 19.2506 5.87283 19.858 5.85649 20.5045C5.84153 21.1053 6.06141 21.6763 6.47554 22.1121C6.88968 22.5479 7.44897 22.7959 8.04984 22.8112C8.65071 22.8265 9.2217 22.6066 9.65752 22.1921C10.0656 21.8041 10.3093 21.2889 10.3507 20.731C9.92349 20.5991 9.50135 20.442 9.09234 20.2627C9.08975 20.2615 9.08714 20.2606 9.08456 20.2595C8.70758 20.0943 8.33281 19.906 7.97088 19.7002C7.52109 19.4435 7.08048 19.1542 6.65868 18.8378Z"/>
<path d="M10.2866 22.2419C10.2348 22.2385 10.1829 22.2227 10.1356 22.1939L5.72932 19.497C5.57285 19.4012 5.52361 19.1967 5.61939 19.0399C5.71514 18.8835 5.91996 18.8342 6.07642 18.93L10.4827 21.6269C10.6391 21.7226 10.6884 21.9271 10.5926 22.0839C10.5257 22.193 10.4059 22.2499 10.2866 22.2419Z"/>
<path d="M8.41229 23.4525C8.23627 23.4724 8.07424 23.3499 8.04689 23.1734L7.47241 19.4847C7.44418 19.3033 7.56843 19.1334 7.74952 19.1052C7.93062 19.077 8.10088 19.2012 8.12908 19.3823L8.70356 23.071C8.7318 23.2524 8.60755 23.4223 8.42645 23.4505C8.42186 23.4514 8.41691 23.4519 8.41229 23.4525Z"/>
<path d="M5.81643 22.1279C5.70667 22.1206 5.60288 22.059 5.54654 21.9553C5.45874 21.7942 5.51824 21.5923 5.67934 21.5045L9.05908 19.6625C9.22018 19.5747 9.42204 19.6342 9.50984 19.7953C9.59764 19.9564 9.53814 20.1583 9.37704 20.2461L5.9973 22.0881C5.9399 22.1195 5.87711 22.132 5.81643 22.1279Z"/>
<path d="M23.3178 10.9037C23.1822 10.9037 23.0545 10.8698 22.9522 10.7718C22.8807 10.7033 22.7704 10.5494 22.8349 10.2869C22.89 10.0629 22.8126 9.79038 22.7382 9.52683C22.6331 9.15626 22.5477 8.79235 22.6544 8.41547C22.7295 8.15026 22.9183 7.91562 23.1599 7.788C23.3623 7.68132 23.5853 7.65972 23.788 7.72818C24.1014 7.83353 24.3291 8.14062 24.3816 8.52049C24.5896 8.34302 24.9117 8.33604 25.1556 8.50553C25.3477 8.63913 25.4451 8.84054 25.5016 8.98045C25.6246 9.28455 25.6522 9.55009 25.5857 9.7927C25.489 10.1463 25.1869 10.4341 24.7568 10.5827C24.581 10.6435 24.4069 10.6767 24.2384 10.709C24.1164 10.7322 24.0014 10.7542 23.8927 10.7854C23.8731 10.7911 23.8525 10.797 23.8312 10.8034C23.6707 10.8502 23.4879 10.9037 23.3178 10.9037ZM23.5471 8.35365C23.5241 8.35365 23.4986 8.3613 23.4703 8.37592C23.3902 8.41813 23.3194 8.50686 23.2942 8.59626C23.2347 8.8063 23.2968 9.05988 23.3779 9.3457C23.4484 9.59496 23.5328 9.89274 23.5162 10.2018C23.565 10.1889 23.6122 10.1749 23.6458 10.1653C23.6684 10.1586 23.6903 10.1523 23.7113 10.1463C23.8482 10.1071 23.9834 10.0815 24.1141 10.0563C24.2659 10.027 24.4095 9.99975 24.5405 9.95455C24.7073 9.89706 24.9011 9.77808 24.9453 9.61722C24.9715 9.52184 24.9516 9.39156 24.8861 9.22971C24.8542 9.15061 24.823 9.09544 24.7934 9.06553C24.7917 9.06852 24.7901 9.07152 24.7887 9.07417C24.7342 9.17255 24.6428 9.33739 24.4351 9.39788C24.1795 9.47265 23.896 9.31911 23.7897 9.04892C23.7405 8.92395 23.7352 8.80498 23.7309 8.70926C23.7299 8.68699 23.7289 8.66473 23.7272 8.64246C23.7166 8.50753 23.6504 8.38257 23.577 8.35797C23.567 8.35498 23.5574 8.35365 23.5471 8.35365Z"/>
<path d="M22.1258 12.4422C22.1148 12.4422 22.1035 12.4415 22.0922 12.4405C21.9094 12.4222 21.7765 12.259 21.7948 12.0766C21.8995 11.0347 21.7203 10.3587 21.1344 9.60627C20.7024 9.4052 19.9403 9.36598 19.3766 9.33707C19.25 9.33042 19.1304 9.32444 19.0207 9.31713L18.9592 9.31314C18.7252 9.29852 18.4341 9.28024 18.1865 9.1031C17.9492 8.9336 17.8209 8.64313 17.8429 8.32641C17.8648 8.00968 18.0323 7.74015 18.2909 7.60522C18.3992 7.54839 18.5115 7.51782 18.6106 7.49056C18.6697 7.47428 18.7655 7.44802 18.798 7.42642C18.7984 7.38953 18.7711 7.30179 18.7545 7.24762C18.7033 7.08078 18.6329 6.85246 18.7289 6.61317C18.8652 6.27319 19.27 6.10834 19.7366 6.2024C19.7778 6.21071 19.8193 6.22001 19.8615 6.22965C20.0068 6.26255 20.1573 6.29678 20.2321 6.25956C20.2683 6.24161 20.3185 6.19143 20.3674 6.14324C20.4714 6.03988 20.614 5.8983 20.829 5.85177C21.1404 5.78398 21.4744 5.9548 21.6412 6.26687C21.7639 6.49586 21.7772 6.74146 21.7805 6.95383C21.7821 7.07114 21.7855 7.19843 21.7891 7.3317C21.8051 7.94122 21.8244 8.68667 21.714 9.2696C22.3671 10.1364 22.5761 10.9566 22.4565 12.1437C22.4389 12.3145 22.2943 12.4422 22.1258 12.4422ZM19.3451 6.86509C19.3427 6.89899 19.3717 6.99404 19.3896 7.05187C19.4441 7.22901 19.5189 7.47195 19.3952 7.72187C19.257 8.00204 18.9848 8.07682 18.7864 8.13132C18.7133 8.1516 18.6438 8.17054 18.5986 8.19414C18.5481 8.22072 18.5115 8.29052 18.5059 8.3726C18.5002 8.45469 18.5265 8.52914 18.573 8.56237C18.6658 8.62851 18.8283 8.63881 19.0008 8.64945C19.0224 8.65078 19.0443 8.65211 19.0656 8.65377C19.1699 8.66075 19.2869 8.66673 19.4105 8.67338C19.9459 8.70096 20.5824 8.73353 21.0985 8.88641C21.1514 8.41182 21.1364 7.83421 21.1238 7.34865C21.1201 7.21272 21.1168 7.08311 21.1151 6.96313C21.1131 6.82255 21.1068 6.67732 21.0546 6.57994C21.0291 6.53241 20.9849 6.50416 20.9676 6.50151C20.941 6.50981 20.8752 6.57495 20.8356 6.6145C20.7579 6.69194 20.6608 6.78832 20.5292 6.85412C20.2417 6.9977 19.9493 6.93123 19.7143 6.87805C19.6774 6.86974 19.6412 6.86143 19.605 6.85412C19.4797 6.82853 19.3763 6.84648 19.3451 6.86509Z"/>
<path d="M14.7357 15.6157C14.6566 13.653 13.3865 13.0219 13.3324 12.9968C13.2328 12.9513 13.1659 12.8537 13.1533 12.7463C13.1422 12.6373 13.1911 12.5333 13.2797 12.4697C13.3683 12.4061 13.4856 12.398 13.5836 12.4452C13.6512 12.4765 15.2484 13.2449 15.345 15.5998C15.3518 15.7686 15.2215 15.9078 15.0527 15.9122C14.8855 15.9182 14.7425 15.7845 14.7357 15.6157Z"/>
<path d="M13.4354 15.8685C13.3512 15.9585 13.2214 15.9867 13.1069 15.9433C12.9925 15.8999 12.9118 15.7894 12.9068 15.6669C12.8338 13.8565 11.791 13.8075 11.6701 13.809C11.5044 13.8101 11.3648 13.6762 11.3581 13.5107C11.3514 13.3452 11.4817 13.206 11.6471 13.1983C11.6637 13.1979 13.4166 13.182 13.5161 15.651C13.521 15.7321 13.491 15.8091 13.4354 15.8685Z"/>
<path d="M8.06147 15.0587C7.85948 15.0639 7.68897 14.9044 7.68083 14.7025C7.67269 14.5006 7.82999 14.3325 8.03198 14.3272C8.23397 14.3219 8.40449 14.4815 8.41263 14.6834C8.4165 14.7794 8.38222 14.8747 8.31549 14.946C8.24862 15.014 8.1575 15.0562 8.06147 15.0587Z"/>
<path fill-rule="evenodd" clip-rule="evenodd" d="M11.4556 20.9036C8.17629 20.2498 5.774 17.9076 4.80453 16.8079C4.46719 16.4158 4.4441 15.8433 4.75247 15.4343C5.61057 14.3135 7.75335 11.9234 10.8672 11.0502C11.4092 10.0222 12.8415 8.30497 16.4979 7.8566C16.6827 7.83521 16.8722 7.89156 17.0147 8.01208C17.1605 8.13583 17.2473 8.31579 17.255 8.50445L17.3842 11.7116C18.3105 12.1579 19.1859 12.6999 19.9987 13.3331C20.5485 12.6627 21.3522 12.2491 22.2248 12.1865L25.882 12.0893C26.0509 12.0849 26.1922 12.2171 26.199 12.3859C26.2031 12.4885 26.2726 14.6651 24.8415 15.7147C26.3542 16.6874 26.4618 18.8647 26.4642 18.9657C26.471 19.1345 26.3407 19.2737 26.1719 19.2781L22.5129 19.3737C21.4698 19.4009 20.6319 18.8016 20.0628 18.2118C19.3261 18.8331 18.4477 19.4822 17.5675 19.8739C17.0778 20.0973 16.4861 20.3323 15.8982 20.533C16.3976 20.8387 16.9226 21.0829 17.4639 21.2611C17.5824 21.3 17.6614 21.4125 17.658 21.5373C17.6547 21.6621 17.5698 21.7698 17.4491 21.8025C16.902 21.9497 16.3362 22.035 15.7675 22.0557C14.2732 22.1102 12.7836 21.7126 11.4592 20.9058L11.4556 20.9036ZM5.26071 16.4067C5.11615 16.2332 5.10787 15.9866 5.23828 15.8093C6.29618 14.4232 7.62355 13.267 9.14359 12.4089C9.87717 13.4616 10.2983 14.6997 10.3547 15.9755C10.4012 17.2515 10.0822 18.5073 9.43169 19.5961C7.84573 18.8191 6.42802 17.7346 5.26071 16.4067ZM16.6239 8.47454C16.6377 8.48744 16.6483 8.50373 16.6474 8.52197L16.7649 11.4379C15.4636 10.8954 14.0616 10.6537 12.6627 10.7333C12.3437 10.7565 12.0254 10.7963 11.7096 10.8543C12.3643 9.95086 13.7387 8.81 16.5819 8.46073C16.5968 8.45869 16.6119 8.46326 16.6239 8.47454ZM25.8263 18.6808L22.4918 18.7679C21.6756 18.7909 20.9946 18.3034 20.5224 17.8138C20.8789 17.4881 21.2295 17.141 21.5791 16.7674C21.684 16.6552 21.7873 16.5415 21.892 16.4262L21.8966 16.4211C22.2685 15.9857 22.2423 15.3336 21.8329 14.9219C21.3842 14.483 20.9339 14.0839 20.4848 13.7146C20.9241 13.183 21.5605 12.8516 22.2509 12.7938L25.5854 12.7067C25.5455 13.3605 25.3214 14.8738 24.1223 15.4303L23.4568 15.4477C23.3458 15.4489 23.2454 15.5079 23.193 15.6053C23.1405 15.7028 23.1452 15.8186 23.2054 15.9131C23.2671 16.006 23.3705 16.0612 23.4813 16.0567L24.1469 16.0393C25.3883 16.532 25.7337 18.0305 25.8263 18.6808ZM21.4113 15.3587C21.5876 15.5396 21.5989 15.8209 21.4393 16.0123C19.9395 17.6907 18.1933 19.0362 16.0978 19.8842C14.9994 20.3283 14.7772 20.3427 13.1501 20.4485C13.0837 20.4528 13.015 20.4572 12.9438 20.4619C11.9364 20.4269 10.9434 20.2176 10.005 19.8396C10.6854 18.6671 11.019 17.3232 10.9673 15.9595C10.9073 14.5943 10.4644 13.269 9.69108 12.1345C10.6376 11.6857 11.6627 11.4187 12.7121 11.3433C15.5621 11.1595 18.4872 12.5111 21.4113 15.3587ZM15.7469 21.491C14.8682 21.523 13.9906 21.3856 13.1519 21.0893C13.8959 21.0973 14.6427 21.0214 15.367 20.8647C15.6961 21.0814 16.0367 21.2729 16.3866 21.438C16.1744 21.4655 15.961 21.4832 15.7469 21.491Z"/>
</mask>
<path d="M15 29C13.1103 29 11.2767 28.6298 9.55055 27.8996C7.88351 27.1944 6.3863 26.185 5.10046 24.8995C3.81496 23.614 2.80529 22.1168 2.10039 20.4494C1.37023 18.7233 1 16.8897 1 15C1 13.1103 1.37023 11.2767 2.10039 9.55055C2.80563 7.88351 3.81496 6.3863 5.10046 5.10046C6.38597 3.81496 7.88318 2.80529 9.55055 2.10039C11.2767 1.37023 13.1103 1 15 1C16.8897 1 18.7233 1.37023 20.4494 2.10039C22.1165 2.80563 23.6137 3.81496 24.8995 5.10046C26.185 6.38597 27.1947 7.88318 27.8996 9.55055C28.6298 11.2767 29 13.1103 29 15C29 16.8897 28.6298 18.7233 27.8996 20.4494C27.1944 22.1165 26.185 23.6137 24.8995 24.8995C23.614 26.185 22.1168 27.1947 20.4494 27.8996C18.7233 28.6298 16.8897 29 15 29ZM15 1.66469C7.64688 1.66469 1.66469 7.64688 1.66469 15C1.66469 22.3531 7.64688 28.3353 15 28.3353C22.3531 28.3353 28.3353 22.3531 28.3353 15C28.3353 7.64688 22.3531 1.66469 15 1.66469Z" fill="#203686"/>
<path d="M6.59981 9.79147C6.537 9.79147 6.47319 9.77353 6.41702 9.7363C6.26381 9.63527 6.22193 9.42888 6.32297 9.27567C8.25522 6.35138 11.4992 4.60557 14.9998 4.60557C15.3199 4.60557 15.6429 4.62019 15.9596 4.64944C16.1424 4.66606 16.277 4.82791 16.2604 5.0107C16.2438 5.19349 16.0819 5.32776 15.8991 5.31147C15.6023 5.28422 15.2996 5.27059 14.9998 5.27059C11.7229 5.27059 8.6866 6.90506 6.87732 9.64258C6.81351 9.73896 6.70749 9.79147 6.59981 9.79147Z" fill="#203686"/>
<path d="M15.2608 25.28C14.0793 25.28 12.9208 25.0819 11.8104 24.6894C11.6373 24.6283 11.5466 24.4385 11.6077 24.2654C11.6689 24.0922 11.8586 24.0015 12.0318 24.0626C13.2036 24.4767 14.4333 24.6595 15.6866 24.606C18.7338 24.4757 21.487 22.9672 23.2407 20.467C23.3461 20.3168 23.5535 20.2802 23.7037 20.3859C23.8539 20.4916 23.8905 20.6986 23.7848 20.8489C22.8885 22.127 21.6963 23.2038 20.3377 23.9636C18.9126 24.7605 17.3573 25.1999 15.7148 25.2704C15.5633 25.2767 15.4117 25.28 15.2608 25.28Z" fill="#203686"/>
<path d="M7.90843 23.4699C7.17758 23.4209 6.50197 23.1045 5.99384 22.5702C5.45708 22.0059 5.17222 21.2663 5.19175 20.4879C5.2154 19.5485 5.69477 18.6729 6.4736 18.1452C6.59294 18.0643 6.75111 18.0699 6.86474 18.1588C7.32174 18.5165 7.80465 18.8407 8.29973 19.1223C8.63918 19.3156 8.99043 19.492 9.34409 19.6473C9.34701 19.6485 9.34959 19.6497 9.35251 19.6509C9.81455 19.8541 10.2946 20.0271 10.7793 20.1649C10.9182 20.2045 11.0158 20.3293 11.0205 20.4735C11.0222 20.5262 11.0223 20.5802 11.021 20.6344C11.0015 21.4129 10.6801 22.1371 10.1155 22.6738C9.55129 23.2106 8.81174 23.4951 8.03329 23.4756C7.99173 23.4745 7.94988 23.4727 7.90843 23.4699ZM6.65868 18.8378C6.16868 19.2506 5.87283 19.858 5.85649 20.5045C5.84153 21.1053 6.06141 21.6763 6.47554 22.1121C6.88968 22.5479 7.44897 22.7959 8.04984 22.8112C8.65071 22.8265 9.2217 22.6066 9.65752 22.1921C10.0656 21.8041 10.3093 21.2889 10.3507 20.731C9.92349 20.5991 9.50135 20.442 9.09234 20.2627C9.08975 20.2615 9.08714 20.2606 9.08456 20.2595C8.70758 20.0943 8.33281 19.906 7.97088 19.7002C7.52109 19.4435 7.08048 19.1542 6.65868 18.8378Z" fill="#203686"/>
<path d="M10.2866 22.2419C10.2348 22.2385 10.1829 22.2227 10.1356 22.1939L5.72932 19.497C5.57285 19.4012 5.52361 19.1967 5.61939 19.0399C5.71514 18.8835 5.91996 18.8342 6.07642 18.93L10.4827 21.6269C10.6391 21.7226 10.6884 21.9271 10.5926 22.0839C10.5257 22.193 10.4059 22.2499 10.2866 22.2419Z" fill="#203686"/>
<path d="M8.41229 23.4525C8.23627 23.4724 8.07424 23.3499 8.04689 23.1734L7.47241 19.4847C7.44418 19.3033 7.56843 19.1334 7.74952 19.1052C7.93062 19.077 8.10088 19.2012 8.12908 19.3823L8.70356 23.071C8.7318 23.2524 8.60755 23.4223 8.42645 23.4505C8.42186 23.4514 8.41691 23.4519 8.41229 23.4525Z" fill="#203686"/>
<path d="M5.81643 22.1279C5.70667 22.1206 5.60288 22.059 5.54654 21.9553C5.45874 21.7942 5.51824 21.5923 5.67934 21.5045L9.05908 19.6625C9.22018 19.5747 9.42204 19.6342 9.50984 19.7953C9.59764 19.9564 9.53814 20.1583 9.37704 20.2461L5.9973 22.0881C5.9399 22.1195 5.87711 22.132 5.81643 22.1279Z" fill="#203686"/>
<path d="M23.3178 10.9037C23.1822 10.9037 23.0545 10.8698 22.9522 10.7718C22.8807 10.7033 22.7704 10.5494 22.8349 10.2869C22.89 10.0629 22.8126 9.79038 22.7382 9.52683C22.6331 9.15626 22.5477 8.79235 22.6544 8.41547C22.7295 8.15026 22.9183 7.91562 23.1599 7.788C23.3623 7.68132 23.5853 7.65972 23.788 7.72818C24.1014 7.83353 24.3291 8.14062 24.3816 8.52049C24.5896 8.34302 24.9117 8.33604 25.1556 8.50553C25.3477 8.63913 25.4451 8.84054 25.5016 8.98045C25.6246 9.28455 25.6522 9.55009 25.5857 9.7927C25.489 10.1463 25.1869 10.4341 24.7568 10.5827C24.581 10.6435 24.4069 10.6767 24.2384 10.709C24.1164 10.7322 24.0014 10.7542 23.8927 10.7854C23.8731 10.7911 23.8525 10.797 23.8312 10.8034C23.6707 10.8502 23.4879 10.9037 23.3178 10.9037ZM23.5471 8.35365C23.5241 8.35365 23.4986 8.3613 23.4703 8.37592C23.3902 8.41813 23.3194 8.50686 23.2942 8.59626C23.2347 8.8063 23.2968 9.05988 23.3779 9.3457C23.4484 9.59496 23.5328 9.89274 23.5162 10.2018C23.565 10.1889 23.6122 10.1749 23.6458 10.1653C23.6684 10.1586 23.6903 10.1523 23.7113 10.1463C23.8482 10.1071 23.9834 10.0815 24.1141 10.0563C24.2659 10.027 24.4095 9.99975 24.5405 9.95455C24.7073 9.89706 24.9011 9.77808 24.9453 9.61722C24.9715 9.52184 24.9516 9.39156 24.8861 9.22971C24.8542 9.15061 24.823 9.09544 24.7934 9.06553C24.7917 9.06852 24.7901 9.07152 24.7887 9.07417C24.7342 9.17255 24.6428 9.33739 24.4351 9.39788C24.1795 9.47265 23.896 9.31911 23.7897 9.04892C23.7405 8.92395 23.7352 8.80498 23.7309 8.70926C23.7299 8.68699 23.7289 8.66473 23.7272 8.64246C23.7166 8.50753 23.6504 8.38257 23.577 8.35797C23.567 8.35498 23.5574 8.35365 23.5471 8.35365Z" fill="#203686"/>
<path d="M22.1258 12.4422C22.1148 12.4422 22.1035 12.4415 22.0922 12.4405C21.9094 12.4222 21.7765 12.259 21.7948 12.0766C21.8995 11.0347 21.7203 10.3587 21.1344 9.60627C20.7024 9.4052 19.9403 9.36598 19.3766 9.33707C19.25 9.33042 19.1304 9.32444 19.0207 9.31713L18.9592 9.31314C18.7252 9.29852 18.4341 9.28024 18.1865 9.1031C17.9492 8.9336 17.8209 8.64313 17.8429 8.32641C17.8648 8.00968 18.0323 7.74015 18.2909 7.60522C18.3992 7.54839 18.5115 7.51782 18.6106 7.49056C18.6697 7.47428 18.7655 7.44802 18.798 7.42642C18.7984 7.38953 18.7711 7.30179 18.7545 7.24762C18.7033 7.08078 18.6329 6.85246 18.7289 6.61317C18.8652 6.27319 19.27 6.10834 19.7366 6.2024C19.7778 6.21071 19.8193 6.22001 19.8615 6.22965C20.0068 6.26255 20.1573 6.29678 20.2321 6.25956C20.2683 6.24161 20.3185 6.19143 20.3674 6.14324C20.4714 6.03988 20.614 5.8983 20.829 5.85177C21.1404 5.78398 21.4744 5.9548 21.6412 6.26687C21.7639 6.49586 21.7772 6.74146 21.7805 6.95383C21.7821 7.07114 21.7855 7.19843 21.7891 7.3317C21.8051 7.94122 21.8244 8.68667 21.714 9.2696C22.3671 10.1364 22.5761 10.9566 22.4565 12.1437C22.4389 12.3145 22.2943 12.4422 22.1258 12.4422ZM19.3451 6.86509C19.3427 6.89899 19.3717 6.99404 19.3896 7.05187C19.4441 7.22901 19.5189 7.47195 19.3952 7.72187C19.257 8.00204 18.9848 8.07682 18.7864 8.13132C18.7133 8.1516 18.6438 8.17054 18.5986 8.19414C18.5481 8.22072 18.5115 8.29052 18.5059 8.3726C18.5002 8.45469 18.5265 8.52914 18.573 8.56237C18.6658 8.62851 18.8283 8.63881 19.0008 8.64945C19.0224 8.65078 19.0443 8.65211 19.0656 8.65377C19.1699 8.66075 19.2869 8.66673 19.4105 8.67338C19.9459 8.70096 20.5824 8.73353 21.0985 8.88641C21.1514 8.41182 21.1364 7.83421 21.1238 7.34865C21.1201 7.21272 21.1168 7.08311 21.1151 6.96313C21.1131 6.82255 21.1068 6.67732 21.0546 6.57994C21.0291 6.53241 20.9849 6.50416 20.9676 6.50151C20.941 6.50981 20.8752 6.57495 20.8356 6.6145C20.7579 6.69194 20.6608 6.78832 20.5292 6.85412C20.2417 6.9977 19.9493 6.93123 19.7143 6.87805C19.6774 6.86974 19.6412 6.86143 19.605 6.85412C19.4797 6.82853 19.3763 6.84648 19.3451 6.86509Z" fill="#203686"/>
<path d="M14.7357 15.6157C14.6566 13.653 13.3865 13.0219 13.3324 12.9968C13.2328 12.9513 13.1659 12.8537 13.1533 12.7463C13.1422 12.6373 13.1911 12.5333 13.2797 12.4697C13.3683 12.4061 13.4856 12.398 13.5836 12.4452C13.6512 12.4765 15.2484 13.2449 15.345 15.5998C15.3518 15.7686 15.2215 15.9078 15.0527 15.9122C14.8855 15.9182 14.7425 15.7845 14.7357 15.6157Z" fill="#203686"/>
<path d="M13.4354 15.8685C13.3512 15.9585 13.2214 15.9867 13.1069 15.9433C12.9925 15.8999 12.9118 15.7894 12.9068 15.6669C12.8338 13.8565 11.791 13.8075 11.6701 13.809C11.5044 13.8101 11.3648 13.6762 11.3581 13.5107C11.3514 13.3452 11.4817 13.206 11.6471 13.1983C11.6637 13.1979 13.4166 13.182 13.5161 15.651C13.521 15.7321 13.491 15.8091 13.4354 15.8685Z" fill="#203686"/>
<path d="M8.06147 15.0587C7.85948 15.0639 7.68897 14.9044 7.68083 14.7025C7.67269 14.5006 7.82999 14.3325 8.03198 14.3272C8.23397 14.3219 8.40449 14.4815 8.41263 14.6834C8.4165 14.7794 8.38222 14.8747 8.31549 14.946C8.24862 15.014 8.1575 15.0562 8.06147 15.0587Z" fill="#203686"/>
<path fill-rule="evenodd" clip-rule="evenodd" d="M11.4556 20.9036C8.17629 20.2498 5.774 17.9076 4.80453 16.8079C4.46719 16.4158 4.4441 15.8433 4.75247 15.4343C5.61057 14.3135 7.75335 11.9234 10.8672 11.0502C11.4092 10.0222 12.8415 8.30497 16.4979 7.8566C16.6827 7.83521 16.8722 7.89156 17.0147 8.01208C17.1605 8.13583 17.2473 8.31579 17.255 8.50445L17.3842 11.7116C18.3105 12.1579 19.1859 12.6999 19.9987 13.3331C20.5485 12.6627 21.3522 12.2491 22.2248 12.1865L25.882 12.0893C26.0509 12.0849 26.1922 12.2171 26.199 12.3859C26.2031 12.4885 26.2726 14.6651 24.8415 15.7147C26.3542 16.6874 26.4618 18.8647 26.4642 18.9657C26.471 19.1345 26.3407 19.2737 26.1719 19.2781L22.5129 19.3737C21.4698 19.4009 20.6319 18.8016 20.0628 18.2118C19.3261 18.8331 18.4477 19.4822 17.5675 19.8739C17.0778 20.0973 16.4861 20.3323 15.8982 20.533C16.3976 20.8387 16.9226 21.0829 17.4639 21.2611C17.5824 21.3 17.6614 21.4125 17.658 21.5373C17.6547 21.6621 17.5698 21.7698 17.4491 21.8025C16.902 21.9497 16.3362 22.035 15.7675 22.0557C14.2732 22.1102 12.7836 21.7126 11.4592 20.9058L11.4556 20.9036ZM5.26071 16.4067C5.11615 16.2332 5.10787 15.9866 5.23828 15.8093C6.29618 14.4232 7.62355 13.267 9.14359 12.4089C9.87717 13.4616 10.2983 14.6997 10.3547 15.9755C10.4012 17.2515 10.0822 18.5073 9.43169 19.5961C7.84573 18.8191 6.42802 17.7346 5.26071 16.4067ZM16.6239 8.47454C16.6377 8.48744 16.6483 8.50373 16.6474 8.52197L16.7649 11.4379C15.4636 10.8954 14.0616 10.6537 12.6627 10.7333C12.3437 10.7565 12.0254 10.7963 11.7096 10.8543C12.3643 9.95086 13.7387 8.81 16.5819 8.46073C16.5968 8.45869 16.6119 8.46326 16.6239 8.47454ZM25.8263 18.6808L22.4918 18.7679C21.6756 18.7909 20.9946 18.3034 20.5224 17.8138C20.8789 17.4881 21.2295 17.141 21.5791 16.7674C21.684 16.6552 21.7873 16.5415 21.892 16.4262L21.8966 16.4211C22.2685 15.9857 22.2423 15.3336 21.8329 14.9219C21.3842 14.483 20.9339 14.0839 20.4848 13.7146C20.9241 13.183 21.5605 12.8516 22.2509 12.7938L25.5854 12.7067C25.5455 13.3605 25.3214 14.8738 24.1223 15.4303L23.4568 15.4477C23.3458 15.4489 23.2454 15.5079 23.193 15.6053C23.1405 15.7028 23.1452 15.8186 23.2054 15.9131C23.2671 16.006 23.3705 16.0612 23.4813 16.0567L24.1469 16.0393C25.3883 16.532 25.7337 18.0305 25.8263 18.6808ZM21.4113 15.3587C21.5876 15.5396 21.5989 15.8209 21.4393 16.0123C19.9395 17.6907 18.1933 19.0362 16.0978 19.8842C14.9994 20.3283 14.7772 20.3427 13.1501 20.4485C13.0837 20.4528 13.015 20.4572 12.9438 20.4619C11.9364 20.4269 10.9434 20.2176 10.005 19.8396C10.6854 18.6671 11.019 17.3232 10.9673 15.9595C10.9073 14.5943 10.4644 13.269 9.69108 12.1345C10.6376 11.6857 11.6627 11.4187 12.7121 11.3433C15.5621 11.1595 18.4872 12.5111 21.4113 15.3587ZM15.7469 21.491C14.8682 21.523 13.9906 21.3856 13.1519 21.0893C13.8959 21.0973 14.6427 21.0214 15.367 20.8647C15.6961 21.0814 16.0367 21.2729 16.3866 21.438C16.1744 21.4655 15.961 21.4832 15.7469 21.491Z" fill="#203686"/>
<path d="M15 29C13.1103 29 11.2767 28.6298 9.55055 27.8996C7.88351 27.1944 6.3863 26.185 5.10046 24.8995C3.81496 23.614 2.80529 22.1168 2.10039 20.4494C1.37023 18.7233 1 16.8897 1 15C1 13.1103 1.37023 11.2767 2.10039 9.55055C2.80563 7.88351 3.81496 6.3863 5.10046 5.10046C6.38597 3.81496 7.88318 2.80529 9.55055 2.10039C11.2767 1.37023 13.1103 1 15 1C16.8897 1 18.7233 1.37023 20.4494 2.10039C22.1165 2.80563 23.6137 3.81496 24.8995 5.10046C26.185 6.38597 27.1947 7.88318 27.8996 9.55055C28.6298 11.2767 29 13.1103 29 15C29 16.8897 28.6298 18.7233 27.8996 20.4494C27.1944 22.1165 26.185 23.6137 24.8995 24.8995C23.614 26.185 22.1168 27.1947 20.4494 27.8996C18.7233 28.6298 16.8897 29 15 29ZM15 1.66469C7.64688 1.66469 1.66469 7.64688 1.66469 15C1.66469 22.3531 7.64688 28.3353 15 28.3353C22.3531 28.3353 28.3353 22.3531 28.3353 15C28.3353 7.64688 22.3531 1.66469 15 1.66469Z" stroke="#203686" stroke-width="0.2" mask="url(#path-1-outside-1_2710_89584)"/>
<path d="M6.59981 9.79147C6.537 9.79147 6.47319 9.77353 6.41702 9.7363C6.26381 9.63527 6.22193 9.42888 6.32297 9.27567C8.25522 6.35138 11.4992 4.60557 14.9998 4.60557C15.3199 4.60557 15.6429 4.62019 15.9596 4.64944C16.1424 4.66606 16.277 4.82791 16.2604 5.0107C16.2438 5.19349 16.0819 5.32776 15.8991 5.31147C15.6023 5.28422 15.2996 5.27059 14.9998 5.27059C11.7229 5.27059 8.6866 6.90506 6.87732 9.64258C6.81351 9.73896 6.70749 9.79147 6.59981 9.79147Z" stroke="#203686" stroke-width="0.2" mask="url(#path-1-outside-1_2710_89584)"/>
<path d="M15.2608 25.28C14.0793 25.28 12.9208 25.0819 11.8104 24.6894C11.6373 24.6283 11.5466 24.4385 11.6077 24.2654C11.6689 24.0922 11.8586 24.0015 12.0318 24.0626C13.2036 24.4767 14.4333 24.6595 15.6866 24.606C18.7338 24.4757 21.487 22.9672 23.2407 20.467C23.3461 20.3168 23.5535 20.2802 23.7037 20.3859C23.8539 20.4916 23.8905 20.6986 23.7848 20.8489C22.8885 22.127 21.6963 23.2038 20.3377 23.9636C18.9126 24.7605 17.3573 25.1999 15.7148 25.2704C15.5633 25.2767 15.4117 25.28 15.2608 25.28Z" stroke="#203686" stroke-width="0.2" mask="url(#path-1-outside-1_2710_89584)"/>
<path d="M7.90843 23.4699C7.17758 23.4209 6.50197 23.1045 5.99384 22.5702C5.45708 22.0059 5.17222 21.2663 5.19175 20.4879C5.2154 19.5485 5.69477 18.6729 6.4736 18.1452C6.59294 18.0643 6.75111 18.0699 6.86474 18.1588C7.32174 18.5165 7.80465 18.8407 8.29973 19.1223C8.63918 19.3156 8.99043 19.492 9.34409 19.6473C9.34701 19.6485 9.34959 19.6497 9.35251 19.6509C9.81455 19.8541 10.2946 20.0271 10.7793 20.1649C10.9182 20.2045 11.0158 20.3293 11.0205 20.4735C11.0222 20.5262 11.0223 20.5802 11.021 20.6344C11.0015 21.4129 10.6801 22.1371 10.1155 22.6738C9.55129 23.2106 8.81174 23.4951 8.03329 23.4756C7.99173 23.4745 7.94988 23.4727 7.90843 23.4699ZM6.65868 18.8378C6.16868 19.2506 5.87283 19.858 5.85649 20.5045C5.84153 21.1053 6.06141 21.6763 6.47554 22.1121C6.88968 22.5479 7.44897 22.7959 8.04984 22.8112C8.65071 22.8265 9.2217 22.6066 9.65752 22.1921C10.0656 21.8041 10.3093 21.2889 10.3507 20.731C9.92349 20.5991 9.50135 20.442 9.09234 20.2627C9.08975 20.2615 9.08714 20.2606 9.08456 20.2595C8.70758 20.0943 8.33281 19.906 7.97088 19.7002C7.52109 19.4435 7.08048 19.1542 6.65868 18.8378Z" stroke="#203686" stroke-width="0.2" mask="url(#path-1-outside-1_2710_89584)"/>
<path d="M10.2866 22.2419C10.2348 22.2385 10.1829 22.2227 10.1356 22.1939L5.72932 19.497C5.57285 19.4012 5.52361 19.1967 5.61939 19.0399C5.71514 18.8835 5.91996 18.8342 6.07642 18.93L10.4827 21.6269C10.6391 21.7226 10.6884 21.9271 10.5926 22.0839C10.5257 22.193 10.4059 22.2499 10.2866 22.2419Z" stroke="#203686" stroke-width="0.2" mask="url(#path-1-outside-1_2710_89584)"/>
<path d="M8.41229 23.4525C8.23627 23.4724 8.07424 23.3499 8.04689 23.1734L7.47241 19.4847C7.44418 19.3033 7.56843 19.1334 7.74952 19.1052C7.93062 19.077 8.10088 19.2012 8.12908 19.3823L8.70356 23.071C8.7318 23.2524 8.60755 23.4223 8.42645 23.4505C8.42186 23.4514 8.41691 23.4519 8.41229 23.4525Z" stroke="#203686" stroke-width="0.2" mask="url(#path-1-outside-1_2710_89584)"/>
<path d="M5.81643 22.1279C5.70667 22.1206 5.60288 22.059 5.54654 21.9553C5.45874 21.7942 5.51824 21.5923 5.67934 21.5045L9.05908 19.6625C9.22018 19.5747 9.42204 19.6342 9.50984 19.7953C9.59764 19.9564 9.53814 20.1583 9.37704 20.2461L5.9973 22.0881C5.9399 22.1195 5.87711 22.132 5.81643 22.1279Z" stroke="#203686" stroke-width="0.2" mask="url(#path-1-outside-1_2710_89584)"/>
<path d="M23.3178 10.9037C23.1822 10.9037 23.0545 10.8698 22.9522 10.7718C22.8807 10.7033 22.7704 10.5494 22.8349 10.2869C22.89 10.0629 22.8126 9.79038 22.7382 9.52683C22.6331 9.15626 22.5477 8.79235 22.6544 8.41547C22.7295 8.15026 22.9183 7.91562 23.1599 7.788C23.3623 7.68132 23.5853 7.65972 23.788 7.72818C24.1014 7.83353 24.3291 8.14062 24.3816 8.52049C24.5896 8.34302 24.9117 8.33604 25.1556 8.50553C25.3477 8.63913 25.4451 8.84054 25.5016 8.98045C25.6246 9.28455 25.6522 9.55009 25.5857 9.7927C25.489 10.1463 25.1869 10.4341 24.7568 10.5827C24.581 10.6435 24.4069 10.6767 24.2384 10.709C24.1164 10.7322 24.0014 10.7542 23.8927 10.7854C23.8731 10.7911 23.8525 10.797 23.8312 10.8034C23.6707 10.8502 23.4879 10.9037 23.3178 10.9037ZM23.5471 8.35365C23.5241 8.35365 23.4986 8.3613 23.4703 8.37592C23.3902 8.41813 23.3194 8.50686 23.2942 8.59626C23.2347 8.8063 23.2968 9.05988 23.3779 9.3457C23.4484 9.59496 23.5328 9.89274 23.5162 10.2018C23.565 10.1889 23.6122 10.1749 23.6458 10.1653C23.6684 10.1586 23.6903 10.1523 23.7113 10.1463C23.8482 10.1071 23.9834 10.0815 24.1141 10.0563C24.2659 10.027 24.4095 9.99975 24.5405 9.95455C24.7073 9.89706 24.9011 9.77808 24.9453 9.61722C24.9715 9.52184 24.9516 9.39156 24.8861 9.22971C24.8542 9.15061 24.823 9.09544 24.7934 9.06553C24.7917 9.06852 24.7901 9.07152 24.7887 9.07417C24.7342 9.17255 24.6428 9.33739 24.4351 9.39788C24.1795 9.47265 23.896 9.31911 23.7897 9.04892C23.7405 8.92395 23.7352 8.80498 23.7309 8.70926C23.7299 8.68699 23.7289 8.66473 23.7272 8.64246C23.7166 8.50753 23.6504 8.38257 23.577 8.35797C23.567 8.35498 23.5574 8.35365 23.5471 8.35365Z" stroke="#203686" stroke-width="0.2" mask="url(#path-1-outside-1_2710_89584)"/>
<path d="M22.1258 12.4422C22.1148 12.4422 22.1035 12.4415 22.0922 12.4405C21.9094 12.4222 21.7765 12.259 21.7948 12.0766C21.8995 11.0347 21.7203 10.3587 21.1344 9.60627C20.7024 9.4052 19.9403 9.36598 19.3766 9.33707C19.25 9.33042 19.1304 9.32444 19.0207 9.31713L18.9592 9.31314C18.7252 9.29852 18.4341 9.28024 18.1865 9.1031C17.9492 8.9336 17.8209 8.64313 17.8429 8.32641C17.8648 8.00968 18.0323 7.74015 18.2909 7.60522C18.3992 7.54839 18.5115 7.51782 18.6106 7.49056C18.6697 7.47428 18.7655 7.44802 18.798 7.42642C18.7984 7.38953 18.7711 7.30179 18.7545 7.24762C18.7033 7.08078 18.6329 6.85246 18.7289 6.61317C18.8652 6.27319 19.27 6.10834 19.7366 6.2024C19.7778 6.21071 19.8193 6.22001 19.8615 6.22965C20.0068 6.26255 20.1573 6.29678 20.2321 6.25956C20.2683 6.24161 20.3185 6.19143 20.3674 6.14324C20.4714 6.03988 20.614 5.8983 20.829 5.85177C21.1404 5.78398 21.4744 5.9548 21.6412 6.26687C21.7639 6.49586 21.7772 6.74146 21.7805 6.95383C21.7821 7.07114 21.7855 7.19843 21.7891 7.3317C21.8051 7.94122 21.8244 8.68667 21.714 9.2696C22.3671 10.1364 22.5761 10.9566 22.4565 12.1437C22.4389 12.3145 22.2943 12.4422 22.1258 12.4422ZM19.3451 6.86509C19.3427 6.89899 19.3717 6.99404 19.3896 7.05187C19.4441 7.22901 19.5189 7.47195 19.3952 7.72187C19.257 8.00204 18.9848 8.07682 18.7864 8.13132C18.7133 8.1516 18.6438 8.17054 18.5986 8.19414C18.5481 8.22072 18.5115 8.29052 18.5059 8.3726C18.5002 8.45469 18.5265 8.52914 18.573 8.56237C18.6658 8.62851 18.8283 8.63881 19.0008 8.64945C19.0224 8.65078 19.0443 8.65211 19.0656 8.65377C19.1699 8.66075 19.2869 8.66673 19.4105 8.67338C19.9459 8.70096 20.5824 8.73353 21.0985 8.88641C21.1514 8.41182 21.1364 7.83421 21.1238 7.34865C21.1201 7.21272 21.1168 7.08311 21.1151 6.96313C21.1131 6.82255 21.1068 6.67732 21.0546 6.57994C21.0291 6.53241 20.9849 6.50416 20.9676 6.50151C20.941 6.50981 20.8752 6.57495 20.8356 6.6145C20.7579 6.69194 20.6608 6.78832 20.5292 6.85412C20.2417 6.9977 19.9493 6.93123 19.7143 6.87805C19.6774 6.86974 19.6412 6.86143 19.605 6.85412C19.4797 6.82853 19.3763 6.84648 19.3451 6.86509Z" stroke="#203686" stroke-width="0.2" mask="url(#path-1-outside-1_2710_89584)"/>
<path d="M14.7357 15.6157C14.6566 13.653 13.3865 13.0219 13.3324 12.9968C13.2328 12.9513 13.1659 12.8537 13.1533 12.7463C13.1422 12.6373 13.1911 12.5333 13.2797 12.4697C13.3683 12.4061 13.4856 12.398 13.5836 12.4452C13.6512 12.4765 15.2484 13.2449 15.345 15.5998C15.3518 15.7686 15.2215 15.9078 15.0527 15.9122C14.8855 15.9182 14.7425 15.7845 14.7357 15.6157Z" stroke="#203686" stroke-width="0.2" mask="url(#path-1-outside-1_2710_89584)"/>
<path d="M13.4354 15.8685C13.3512 15.9585 13.2214 15.9867 13.1069 15.9433C12.9925 15.8999 12.9118 15.7894 12.9068 15.6669C12.8338 13.8565 11.791 13.8075 11.6701 13.809C11.5044 13.8101 11.3648 13.6762 11.3581 13.5107C11.3514 13.3452 11.4817 13.206 11.6471 13.1983C11.6637 13.1979 13.4166 13.182 13.5161 15.651C13.521 15.7321 13.491 15.8091 13.4354 15.8685Z" stroke="#203686" stroke-width="0.2" mask="url(#path-1-outside-1_2710_89584)"/>
<path d="M8.06147 15.0587C7.85948 15.0639 7.68897 14.9044 7.68083 14.7025C7.67269 14.5006 7.82999 14.3325 8.03198 14.3272C8.23397 14.3219 8.40449 14.4815 8.41263 14.6834C8.4165 14.7794 8.38222 14.8747 8.31549 14.946C8.24862 15.014 8.1575 15.0562 8.06147 15.0587Z" stroke="#203686" stroke-width="0.2" mask="url(#path-1-outside-1_2710_89584)"/>
<path fill-rule="evenodd" clip-rule="evenodd" d="M11.4556 20.9036C8.17629 20.2498 5.774 17.9076 4.80453 16.8079C4.46719 16.4158 4.4441 15.8433 4.75247 15.4343C5.61057 14.3135 7.75335 11.9234 10.8672 11.0502C11.4092 10.0222 12.8415 8.30497 16.4979 7.8566C16.6827 7.83521 16.8722 7.89156 17.0147 8.01208C17.1605 8.13583 17.2473 8.31579 17.255 8.50445L17.3842 11.7116C18.3105 12.1579 19.1859 12.6999 19.9987 13.3331C20.5485 12.6627 21.3522 12.2491 22.2248 12.1865L25.882 12.0893C26.0509 12.0849 26.1922 12.2171 26.199 12.3859C26.2031 12.4885 26.2726 14.6651 24.8415 15.7147C26.3542 16.6874 26.4618 18.8647 26.4642 18.9657C26.471 19.1345 26.3407 19.2737 26.1719 19.2781L22.5129 19.3737C21.4698 19.4009 20.6319 18.8016 20.0628 18.2118C19.3261 18.8331 18.4477 19.4822 17.5675 19.8739C17.0778 20.0973 16.4861 20.3323 15.8982 20.533C16.3976 20.8387 16.9226 21.0829 17.4639 21.2611C17.5824 21.3 17.6614 21.4125 17.658 21.5373C17.6547 21.6621 17.5698 21.7698 17.4491 21.8025C16.902 21.9497 16.3362 22.035 15.7675 22.0557C14.2732 22.1102 12.7836 21.7126 11.4592 20.9058L11.4556 20.9036ZM5.26071 16.4067C5.11615 16.2332 5.10787 15.9866 5.23828 15.8093C6.29618 14.4232 7.62355 13.267 9.14359 12.4089C9.87717 13.4616 10.2983 14.6997 10.3547 15.9755C10.4012 17.2515 10.0822 18.5073 9.43169 19.5961C7.84573 18.8191 6.42802 17.7346 5.26071 16.4067ZM16.6239 8.47454C16.6377 8.48744 16.6483 8.50373 16.6474 8.52197L16.7649 11.4379C15.4636 10.8954 14.0616 10.6537 12.6627 10.7333C12.3437 10.7565 12.0254 10.7963 11.7096 10.8543C12.3643 9.95086 13.7387 8.81 16.5819 8.46073C16.5968 8.45869 16.6119 8.46326 16.6239 8.47454ZM25.8263 18.6808L22.4918 18.7679C21.6756 18.7909 20.9946 18.3034 20.5224 17.8138C20.8789 17.4881 21.2295 17.141 21.5791 16.7674C21.684 16.6552 21.7873 16.5415 21.892 16.4262L21.8966 16.4211C22.2685 15.9857 22.2423 15.3336 21.8329 14.9219C21.3842 14.483 20.9339 14.0839 20.4848 13.7146C20.9241 13.183 21.5605 12.8516 22.2509 12.7938L25.5854 12.7067C25.5455 13.3605 25.3214 14.8738 24.1223 15.4303L23.4568 15.4477C23.3458 15.4489 23.2454 15.5079 23.193 15.6053C23.1405 15.7028 23.1452 15.8186 23.2054 15.9131C23.2671 16.006 23.3705 16.0612 23.4813 16.0567L24.1469 16.0393C25.3883 16.532 25.7337 18.0305 25.8263 18.6808ZM21.4113 15.3587C21.5876 15.5396 21.5989 15.8209 21.4393 16.0123C19.9395 17.6907 18.1933 19.0362 16.0978 19.8842C14.9994 20.3283 14.7772 20.3427 13.1501 20.4485C13.0837 20.4528 13.015 20.4572 12.9438 20.4619C11.9364 20.4269 10.9434 20.2176 10.005 19.8396C10.6854 18.6671 11.019 17.3232 10.9673 15.9595C10.9073 14.5943 10.4644 13.269 9.69108 12.1345C10.6376 11.6857 11.6627 11.4187 12.7121 11.3433C15.5621 11.1595 18.4872 12.5111 21.4113 15.3587ZM15.7469 21.491C14.8682 21.523 13.9906 21.3856 13.1519 21.0893C13.8959 21.0973 14.6427 21.0214 15.367 20.8647C15.6961 21.0814 16.0367 21.2729 16.3866 21.438C16.1744 21.4655 15.961 21.4832 15.7469 21.491Z" stroke="#203686" stroke-width="0.2" mask="url(#path-1-outside-1_2710_89584)"/>
</svg>
