<svg width="26" height="19" viewBox="0 0 26 19" fill="none" xmlns="http://www.w3.org/2000/svg">
<path d="M24.8603 11.7732C24.8174 11.7103 23.7655 10.2275 20.3881 9.17013C19.1269 8.77578 17.828 8.51367 16.5126 8.38805C19.8415 4.60818 20.7811 1.25958 15.9787 0.0890821C12.6668 -0.614054 6.48753 2.9719 3.80217 6.38368C1.61645 8.81325 -0.585747 12.9829 0.141723 15.3366C0.262432 15.93 0.564634 16.4713 1.0065 16.8854C1.44836 17.2995 2.00803 17.566 2.60803 17.648C3.37156 17.7346 4.14467 17.6705 4.88348 17.4592C6.4854 18.3146 8.68246 18.7495 11.4481 18.7495C12.557 18.7728 13.9038 18.6074 15.0384 18.6239C18.8943 18.7796 29.4624 18.0165 24.8603 11.7732ZM19.8993 9.9939C20.3613 11.2114 20.6158 12.4977 20.6521 13.7994C20.6605 13.974 20.6234 14.1477 20.5444 14.3037C20.337 14.7403 20.0227 14.8572 19.5789 14.5114C19.5024 14.4464 19.4445 14.3624 19.4109 14.2679C19.3774 14.1734 19.3694 14.0716 19.3879 13.973C19.5128 12.883 19.1177 11.4993 18.765 10.5327C18.6533 10.2227 18.5223 9.91285 18.3759 9.60508C18.8899 9.70909 19.3984 9.83886 19.8993 9.9939ZM14.5811 10.3612C14.9551 11.387 15.1973 12.4562 15.3019 13.543C15.3248 13.728 15.2942 13.9157 15.2136 14.0838C15.1331 14.2518 15.006 14.3933 14.8475 14.4913C14.7476 14.5094 14.6449 14.5049 14.547 14.4782C14.449 14.4516 14.3583 14.4034 14.2813 14.3372C14.2044 14.2709 14.1432 14.1884 14.1022 14.0955C14.0612 14.0027 14.0415 13.9018 14.0444 13.8004C14.0495 12.9385 13.887 12.084 13.5659 11.2842C13.9149 10.9792 14.2533 10.6715 14.5811 10.3612ZM10.5071 2.26817C10.6967 2.17507 10.877 2.09255 11.0587 2.01039C12.2107 2.6225 13.2515 3.42399 14.1377 4.38133C14.2587 4.50729 14.3449 4.66247 14.388 4.8317C14.5187 5.29651 14.3588 5.5927 13.7973 5.6229C13.6971 5.62371 13.5985 5.59833 13.5112 5.54926C13.4238 5.5002 13.3508 5.42917 13.2994 5.3432C12.6766 4.43928 11.4689 3.65712 10.5677 3.1608C9.65117 2.66678 9.41899 2.80592 10.5071 2.26817ZM6.11088 5.32302C7.69484 5.69028 9.43063 7.23062 9.94172 7.71163C10.0796 7.83535 10.1792 7.99604 10.2285 8.17463C10.2779 8.35323 10.275 8.54223 10.2201 8.71921C10.1566 8.79858 10.0761 8.8628 9.98466 8.90717C9.89318 8.95154 9.79295 8.97496 9.69128 8.97572C9.58961 8.97648 9.48905 8.95456 9.39691 8.91156C9.30478 8.86856 9.22339 8.80556 9.15867 8.72715C8.44117 7.9176 7.55865 7.27107 6.57046 6.83102C5.10677 6.10883 4.60292 6.75831 6.11088 5.32302ZM2.79955 9.29904C3.89383 9.90155 4.88427 10.6758 5.73307 11.5923C5.85588 11.7207 5.94445 11.8779 5.99063 12.0495C6.05454 12.2371 6.04351 12.4422 5.95984 12.6219C5.89077 12.6969 5.80597 12.7556 5.71151 12.794C5.61706 12.8323 5.51529 12.8493 5.4135 12.8437C5.31171 12.8381 5.21243 12.8101 5.12275 12.7616C5.03307 12.7131 4.95523 12.6454 4.8948 12.5633C4.29718 11.6892 3.14682 10.9223 2.15766 10.3784C2.34912 10.0266 2.56309 9.66682 2.79955 9.29904ZM2.72799 16.7287C0.25466 16.1674 0.781734 13.3476 1.74079 11.2085C2.54312 11.6527 3.6219 12.3437 4.13254 13.0906C4.28186 13.3164 4.4891 13.4979 4.7326 13.6162C4.97611 13.7345 5.24691 13.7852 5.51671 13.763C5.74975 13.7672 5.98033 13.7147 6.18854 13.6099C6.39675 13.5052 6.57633 13.3513 6.71178 13.1616C6.84723 12.972 6.93449 12.7522 6.96602 12.5212C6.99754 12.2903 6.97239 12.0551 6.89273 11.8361C6.80893 11.5077 6.64288 11.206 6.41022 10.9596C5.51079 9.99146 4.46737 9.16793 3.3168 8.51804C3.62748 8.06728 3.96958 7.63281 4.32884 7.19615C5.77061 7.17986 7.7679 8.4556 8.42854 9.29861C9.46754 10.645 11.7575 9.54735 11.1027 7.8807C11.0051 7.55839 10.8242 7.26757 10.5781 7.03767C9.52339 6.01197 8.28964 5.1882 6.938 4.60716C7.49113 4.14821 8.07013 3.72137 8.67215 3.32874C10.0302 3.77398 11.9672 4.99642 12.5326 5.86374C13.0749 6.80085 14.5842 6.70395 15.1136 5.93814C15.5495 5.37508 15.3565 4.27485 14.8099 3.74288C14.0244 2.90502 13.1362 2.16967 12.1665 1.55427C14.4946 0.710692 15.7395 0.985189 15.7645 0.99082C17.1908 1.30382 18.0354 1.85966 18.2748 2.64296C19.0682 4.63712 14.842 9.11032 12.4809 10.998C9.75202 13.5089 6.57443 16.9992 2.72799 16.7287ZM24.8743 15.2884C23.8549 17.4955 17.5635 17.7524 13.6189 17.7397C10.52 17.9657 7.97568 17.7105 6.1546 17.0145C8.28483 16.1029 10.3931 14.3417 12.0845 12.6287C12.2861 12.4297 12.5384 12.1845 12.8131 11.9387C13.0204 12.5182 13.124 13.1298 13.1193 13.7453C13.0958 14.0093 13.1436 14.2747 13.2579 14.5137C13.3722 14.7528 13.5487 14.9567 13.7688 15.1042C13.9501 15.2544 14.1653 15.358 14.3958 15.406C14.6262 15.4541 14.865 15.4451 15.0911 15.3798C15.3173 15.3145 15.5241 15.1949 15.6936 15.0315C15.863 14.868 15.9899 14.6656 16.0632 14.4419C16.2013 14.1334 16.257 13.7944 16.2248 13.4579C16.1044 12.1558 15.7915 10.8788 15.2962 9.66856C15.4314 9.53404 15.5672 9.39802 15.7047 9.25581C16.2198 9.28721 16.7282 9.3393 17.2255 9.41073C17.9551 10.6374 18.6129 12.8369 18.4677 13.8608C18.4278 14.1241 18.4596 14.3933 18.5597 14.6401C18.6598 14.8869 18.8246 15.1022 19.0367 15.2633C19.2091 15.4243 19.4184 15.5405 19.6462 15.6019C19.874 15.6633 20.1134 15.6679 20.3434 15.6153C20.5734 15.5627 20.787 15.4546 20.9655 15.3003C21.144 15.1461 21.2819 14.9504 21.3673 14.7305C21.5207 14.431 21.5933 14.0967 21.5782 13.7605C21.5394 12.6145 21.356 11.478 21.0324 10.3779C23.3364 11.2715 24.0917 12.2916 24.1062 12.3118C25.0065 13.5269 25.265 14.5284 24.8743 15.2884Z" fill="#203686"/>
</svg>
